<svg width="885" height="885" viewBox="0 0 885 869" fill="none" xmlns="http://www.w3.org/2000/svg">
<g clip-path="url(#clip0_42_551)">
<path d="M33.43 581.83L33.62 581.81L33 576.84L32.82 576.86C30.97 577.07 29.68 575.97 28.88 573.51C28.35 571.89 28.29 570.56 28.7 569.54C29.1 568.54 29.98 567.81 31.31 567.38C32.64 566.95 33.78 567.02 34.69 567.6C35.61 568.18 36.35 569.3 36.87 570.92C37.64 573.3 37.27 574.93 35.72 575.9L35.57 575.99L38.03 580.43L38.2 580.32C39.79 579.32 40.79 577.89 41.17 576.07C41.55 574.27 41.34 572.13 40.56 569.72C39.93 567.79 39.07 566.2 38 564.98C36.92 563.76 35.66 562.93 34.27 562.54C32.87 562.14 31.37 562.2 29.8 562.7C28.23 563.21 26.98 564.03 26.08 565.15C25.17 566.27 24.63 567.65 24.47 569.26C24.31 570.86 24.56 572.69 25.21 574.7C25.99 577.12 27.09 578.97 28.48 580.19C29.72 581.29 31.17 581.85 32.81 581.85C33.02 581.85 33.23 581.85 33.44 581.82L33.43 581.83Z" fill="black"/>
<path d="M34.77 590.18L37.04 589.32L40.39 598.19L43.81 596.9L40.45 588.03L42.47 587.26L46.29 597.36L49.77 596.04L44.27 581.51L29.79 586.99L29.61 587.06L35.18 601.77L38.66 600.46L34.77 590.18Z" fill="black"/>
<path d="M49.95 615.65C50.54 616.22 51.14 616.61 51.72 616.79C52.45 617.02 53.2 616.97 53.95 616.65C55.34 616.05 56.07 614.85 56.13 613.1C56.19 611.4 55.63 609.19 54.49 606.55C53.47 604.21 52.29 602.52 50.99 601.55C49.67 600.56 48.17 600.21 46.54 600.49L46.35 600.52L47.3 605.16L47.48 605.12C48.28 604.95 48.95 605.09 49.55 605.54C50.16 606 50.72 606.82 51.23 607.99C51.78 609.26 52.07 610.26 52.1 610.97C52.12 611.63 51.95 612.03 51.57 612.19C51.18 612.36 50.82 612.33 50.49 612.09C50.13 611.84 49.77 611.3 49.42 610.49L47.65 606.41L44.34 607.84L46.18 612.08C46.52 612.87 46.67 613.49 46.62 613.9C46.57 614.29 46.35 614.56 45.94 614.74C45.53 614.92 45.1 614.77 44.63 614.3C44.12 613.8 43.57 612.86 42.98 611.51C42.45 610.28 42.24 609.28 42.37 608.54C42.5 607.81 42.91 607.23 43.64 606.78L43.81 606.68L40.99 602.54L40.84 602.64C39.36 603.63 38.52 605 38.35 606.73C38.18 608.43 38.63 610.52 39.68 612.94C40.87 615.69 42.16 617.67 43.51 618.82C44.4 619.58 45.33 619.96 46.28 619.96C46.8 619.96 47.33 619.84 47.87 619.61C49.46 618.92 50.16 617.59 49.96 615.64L49.95 615.65Z" fill="black"/>
<path d="M57.41 639.82C58.56 639.82 59.73 639.53 60.89 638.95C62.39 638.21 63.52 637.19 64.24 635.93C64.96 634.67 65.28 633.2 65.18 631.55C65.09 629.92 64.57 628.14 63.63 626.26C62.7 624.38 61.59 622.89 60.35 621.82C59.1 620.74 57.73 620.1 56.29 619.91C54.85 619.72 53.36 620 51.86 620.74C50.38 621.47 49.27 622.48 48.56 623.74C47.85 625 47.53 626.47 47.62 628.12C47.71 629.76 48.23 631.54 49.16 633.43C50.09 635.31 51.2 636.8 52.45 637.86C53.7 638.92 55.07 639.56 56.5 639.76C56.8 639.8 57.1 639.82 57.4 639.82H57.41ZM52.64 631.71C51.07 628.54 51.53 626.4 54.05 625.14C56.6 623.88 58.6 624.8 60.17 627.97C60.95 629.54 61.22 630.89 60.97 631.98C60.73 633.05 59.96 633.91 58.71 634.54C56.19 635.79 54.2 634.86 52.64 631.71Z" fill="black"/>
<path d="M76.14 650.14L71.18 652.94L66.77 645.12L71.73 642.32L69.37 638.13L55.89 645.74L55.72 645.83L58.09 650.02L63.4 647.02L67.81 654.84L62.5 657.84L64.86 662.03L78.51 654.33L76.14 650.14Z" fill="black"/>
<path d="M89.45 671.17C88.38 669.55 87.19 668.32 85.91 667.52C84.62 666.72 83.25 666.34 81.84 666.39C80.43 666.44 79.01 666.94 77.6 667.87C75.47 669.27 74.22 671.02 73.89 673.06C73.56 675.1 74.21 677.37 75.82 679.83C77.29 682.06 78.82 683.57 80.37 684.3C81.07 684.63 81.76 684.8 82.44 684.8C83.29 684.8 84.12 684.54 84.91 684.02C86.27 683.12 86.97 681.9 86.99 680.38C87.01 678.89 86.39 677.19 85.16 675.31C84.46 674.24 83.69 673.36 82.87 672.71C82.2 672.16 81.51 671.78 80.82 671.55C81.89 671 82.86 670.83 83.71 671.05C84.67 671.3 85.55 672.02 86.33 673.21C87.43 674.88 87.7 676.08 87.13 676.78L87.03 676.91L90.4 680.36L90.53 680.2C91.44 679.09 91.8 677.75 91.58 676.22C91.36 674.71 90.64 673.02 89.44 671.19L89.45 671.17ZM81.52 676.1C82.84 678.1 83.06 679.41 82.18 679.99C81.34 680.55 80.24 679.81 78.93 677.8C78.26 676.79 77.87 675.95 77.77 675.3C77.68 674.7 77.83 674.27 78.24 674C78.44 673.87 78.65 673.81 78.87 673.81C79.63 673.81 80.51 674.58 81.52 676.1Z" fill="black"/>
<path d="M111.28 697.905L95.0582 710.748L97.8825 714.315L114.104 701.472L111.28 697.905Z" fill="black"/>
<path d="M139.67 734.06L130.3 738.43L134.87 728.92L131.86 725.7L122.1 729.71L127.11 720.6L123.61 716.86L116.11 731.79L119.15 735.04L129.22 731.09L124.62 740.9L127.73 744.23L143.12 737.76L139.67 734.06Z" fill="black"/>
<path d="M155.04 753.82C155.28 752.39 155.08 750.9 154.43 749.39C153.78 747.89 152.69 746.4 151.17 744.95C149.65 743.5 148.1 742.48 146.57 741.9C145.03 741.32 143.52 741.19 142.1 741.5C140.68 741.81 139.38 742.59 138.22 743.8C137.08 744.99 136.39 746.32 136.15 747.75C135.91 749.18 136.12 750.67 136.77 752.19C137.42 753.7 138.51 755.2 140.03 756.65C141.55 758.1 143.1 759.12 144.63 759.69C145.63 760.06 146.62 760.25 147.57 760.25C148.08 760.25 148.59 760.2 149.08 760.09C150.49 759.78 151.79 759.02 152.92 757.83C154.08 756.62 154.78 755.27 155.03 753.84L155.04 753.82ZM149.37 754.42C148.41 755.43 147.37 755.89 146.28 755.8C145.17 755.71 143.97 755.05 142.7 753.84C140.14 751.4 139.84 749.23 141.78 747.19C143.74 745.13 145.94 745.31 148.5 747.75C149.77 748.96 150.49 750.13 150.63 751.24C150.77 752.33 150.35 753.4 149.38 754.42H149.37Z" fill="black"/>
<path d="M167.17 770.88C168.34 770.74 169.36 770.17 170.2 769.19C171.23 767.99 171.66 766.69 171.49 765.3C171.32 763.92 170.51 762.61 169.09 761.38L160.85 754.29L150.64 766.17L154.29 769.31L157.62 765.43L159.5 767.05L159.58 773.86L164.09 777.74L163.89 770.11C165 770.75 166.11 771.01 167.18 770.88H167.17ZM166.07 763.69C166.56 764.11 166.85 764.53 166.92 764.94C166.99 765.33 166.85 765.72 166.51 766.12C166.17 766.52 165.8 766.72 165.4 766.71C164.99 766.71 164.53 766.48 164.04 766.06L160.04 762.62L162.08 760.25L166.08 763.69H166.07Z" fill="black"/>
<path d="M180.27 770.54L176.49 767.57L166.81 779.9L178.07 788.74L180.46 785.69L172.99 779.82L180.27 770.54Z" fill="black"/>
<path d="M197.9 783.77L190.01 778.14L181.02 790.74L180.91 790.89L188.8 796.52C190.9 798.01 192.91 798.77 194.79 798.77C195 798.77 195.21 798.77 195.41 798.74C197.48 798.55 199.26 797.44 200.69 795.44C202.13 793.42 202.61 791.37 202.13 789.33C201.65 787.3 200.22 785.43 197.89 783.77H197.9ZM195.78 787.01C197.96 788.57 198.26 790.39 196.7 792.59C195.94 793.66 195.09 794.27 194.18 794.42C193.27 794.57 192.26 794.25 191.17 793.47L187.07 790.55L191.67 784.1L195.77 787.02L195.78 787.01Z" fill="black"/>
<path d="M221.3 798.97C218.92 797.51 216.84 796.76 215.1 796.75H215.06C213.31 796.75 211.99 797.44 211.15 798.81C210.45 799.95 210.3 801.12 210.7 802.31C211.1 803.48 212.11 804.67 213.72 805.85L217.29 808.38C217.92 808.85 218.39 809.24 218.67 809.54C218.93 809.81 219.08 810.05 219.1 810.24C219.12 810.43 219.07 810.63 218.94 810.84C218.75 811.15 218.37 811.25 217.8 811.14C217.17 811.02 216.17 810.53 214.83 809.71C213.68 809 212.89 808.3 212.48 807.62C212.08 806.95 211.98 806.29 212.19 805.58L212.24 805.42L207.74 803.45L207.67 803.64C207.08 805.28 207.23 806.88 208.1 808.38C208.96 809.86 210.56 811.32 212.86 812.73C215.45 814.33 217.64 815.13 219.35 815.13H219.39C221.14 815.12 222.47 814.41 223.32 813.02C224.04 811.85 224.2 810.66 223.78 809.49C223.37 808.34 222.33 807.13 220.68 805.89L217.04 803.32C216.24 802.71 215.73 802.23 215.53 801.88C215.35 801.57 215.35 801.29 215.53 801.02C215.71 800.73 216.06 800.63 216.61 800.72C217.2 800.82 218.13 801.25 219.35 802C220.41 802.65 221.13 803.27 221.48 803.84C221.82 804.39 221.9 804.98 221.71 805.62L221.66 805.78L226.16 807.75L226.23 807.56C226.78 806.01 226.64 804.51 225.82 803.09C225.01 801.7 223.5 800.31 221.32 798.97H221.3Z" fill="black"/>
<path d="M245.93 813.38L230.57 804.89L228.7 808.28L234.25 811.35L228.54 821.67L232.75 824L238.46 813.67L244.06 816.77L245.93 813.38Z" fill="black"/>
<path d="M261.4 822.63C260.89 821.34 259.78 820.27 258.1 819.44L248.35 814.63L241.5 828.51L241.42 828.68L245.73 830.81L247.99 826.23L250.22 827.33L251.99 833.91L257.32 836.54L255.23 829.2C256.47 829.54 257.6 829.52 258.61 829.12C259.71 828.69 260.55 827.89 261.13 826.73C261.83 825.32 261.92 823.94 261.41 822.64L261.4 822.63ZM254.37 825.22L249.64 822.89L251.02 820.09L255.75 822.43C256.33 822.72 256.71 823.05 256.88 823.43C257.04 823.8 257.01 824.2 256.77 824.68C256.3 825.63 255.54 825.81 254.37 825.23V825.22Z" fill="black"/>
<path d="M275.98 838.01L277.45 834.66L268.75 830.87L269.62 828.89L279.51 833.21L281 829.8L266.76 823.59L260.49 837.94L274.91 844.24L276.4 840.83L266.33 836.44L267.29 834.22L275.98 838.01Z" fill="black"/>
<path d="M284.59 831.25L278.99 845.88L293.51 851.44L293.69 851.5L295.01 848.03L284.75 844.11L285.61 841.84L294.47 845.23L295.78 841.82L286.92 838.43L287.69 836.42L297.6 840.2L297.77 840.27L299.1 836.8L284.76 831.32L284.59 831.25Z" fill="black"/>
<path d="M300.15 841.3L306.17 843.29L302.46 854.49L307.03 856L310.73 844.79L316.81 846.8L318.02 843.13L301.36 837.62L300.15 841.3Z" fill="black"/>
<path d="M336.74 848.07C334.78 847.56 332.97 847.44 331.37 847.69C329.76 847.95 328.39 848.57 327.3 849.53C326.21 850.49 325.45 851.79 325.04 853.39C324.63 854.98 324.65 856.48 325.1 857.84C325.56 859.2 326.43 860.4 327.7 861.41C328.96 862.41 330.64 863.18 332.69 863.71C334.06 864.06 335.33 864.24 336.5 864.24C337.43 864.24 338.29 864.13 339.08 863.9C340.88 863.39 342.24 862.27 343.12 860.59L343.21 860.42L338.69 858.27L338.61 858.44C337.79 860.11 336.17 860.61 333.67 859.96C330.36 859.1 329.1 857.36 329.81 854.62C330.16 853.27 330.83 852.34 331.81 851.88C332.8 851.41 334.13 851.39 335.78 851.82C338.2 852.45 339.38 853.64 339.37 855.47V855.65L344.43 855.96V855.76C344.43 853.88 343.77 852.27 342.44 850.97C341.13 849.68 339.21 848.71 336.75 848.07H336.74Z" fill="black"/>
<path d="M359.57 862.22C359.33 863.37 358.82 864.17 358.04 864.6C357.25 865.04 356.15 865.12 354.79 864.84C353.44 864.56 352.47 864.06 351.92 863.35C351.38 862.65 351.22 861.71 351.46 860.56L353.17 852.22L348.46 851.25L346.75 859.59C346.28 861.88 346.69 863.84 347.96 865.41C349.22 866.98 351.26 868.06 354.01 868.62C355.05 868.83 356.02 868.94 356.93 868.94C358.44 868.94 359.76 868.64 360.88 868.05C362.67 867.1 363.82 865.46 364.29 863.17L366 854.83L361.29 853.87L359.58 862.21L359.57 862.22Z" fill="black"/>
<path d="M539.14 858.25C538.05 857.7 536.47 857.54 534.41 857.78L530 858.42C529 858.53 528.3 858.53 527.92 858.42C527.58 858.32 527.39 858.12 527.32 857.8C527.25 857.47 527.44 857.15 527.89 856.84C528.39 856.5 529.35 856.18 530.76 855.88C531.98 855.62 532.93 855.58 533.57 855.75C534.2 855.91 534.65 856.29 534.96 856.89L535.04 857.04L539.66 855.37L539.58 855.19C538.91 853.69 537.77 852.69 536.2 852.23C534.65 851.78 532.6 851.82 530.1 852.34C527.37 852.92 525.34 853.81 524.07 855C522.78 856.21 522.29 857.63 522.62 859.22C522.89 860.53 523.6 861.48 524.71 862.06C525.8 862.63 527.36 862.8 529.33 862.55L533.66 861.93C534.45 861.84 535.05 861.8 535.46 861.82C535.84 861.84 536.11 861.91 536.25 862.03C536.4 862.15 536.5 862.33 536.55 862.57C536.63 862.93 536.42 863.26 535.93 863.57C535.39 863.91 534.33 864.25 532.79 864.58C531.47 864.86 530.41 864.89 529.65 864.68C528.9 864.47 528.37 864.05 528.04 863.4L527.96 863.25L523.34 864.92L523.42 865.1C524.13 866.7 525.33 867.75 526.99 868.24C527.75 868.46 528.61 868.57 529.59 868.57C530.73 868.57 532.02 868.42 533.44 868.12C536.44 867.49 538.59 866.56 539.83 865.37C541.09 864.15 541.56 862.73 541.23 861.13C540.95 859.78 540.24 858.81 539.13 858.25H539.14Z" fill="black"/>
<path d="M558.62 848.41C557.9 847.71 557.01 847.25 555.97 847.03C554.93 846.82 553.78 846.87 552.55 847.19L542.29 849.88L546.26 865.04L550.91 863.82L549.85 859.76L555.29 858.34C556.57 858.01 557.63 857.49 558.45 856.79C559.28 856.09 559.85 855.25 560.15 854.3C560.45 853.34 560.46 852.29 560.16 851.18C559.86 850.04 559.35 849.11 558.63 848.41H558.62ZM548.88 856.09L547.9 852.35L552.67 851.1C553.43 850.9 554.05 850.91 554.5 851.14C554.95 851.36 555.25 851.79 555.42 852.45C555.74 853.67 555.16 854.45 553.64 854.85L548.87 856.1L548.88 856.09Z" fill="black"/>
<path d="M580.1 842.57C578.96 841.67 577.56 841.13 575.92 840.97C574.29 840.81 572.46 841.06 570.46 841.69C568.46 842.32 566.81 843.19 565.57 844.26C564.32 845.33 563.47 846.59 563.07 847.98C562.66 849.37 562.71 850.89 563.22 852.49C563.72 854.06 564.55 855.31 565.68 856.21C566.82 857.11 568.22 857.64 569.87 857.8C570.2 857.83 570.54 857.85 570.88 857.85C572.25 857.85 573.75 857.59 575.35 857.09C577.35 856.46 578.99 855.59 580.23 854.52C581.47 853.44 582.31 852.19 582.72 850.81C583.13 849.42 583.09 847.92 582.59 846.35C582.08 844.75 581.25 843.48 580.11 842.58L580.1 842.57ZM577.61 851.2C577 852.13 575.84 852.86 574.17 853.39C572.49 853.92 571.11 853.99 570.07 853.59C569.05 853.19 568.31 852.32 567.89 851C567.03 848.29 568.25 846.45 571.62 845.38C572.57 845.08 573.42 844.93 574.17 844.93C576.05 844.93 577.27 845.89 577.89 847.83C578.31 849.16 578.22 850.29 577.61 851.2Z" fill="black"/>
<path d="M600.88 840.16C601.32 839.07 601.31 837.9 600.86 836.69C600.31 835.21 599.37 834.2 598.07 833.69C596.78 833.18 595.24 833.25 593.48 833.91L583.3 837.72L588.8 852.39L593.3 850.7L591.51 845.91L593.83 845.04L599.76 848.21L599.83 848.25L605.4 846.16L598.62 842.66C599.71 841.99 600.47 841.15 600.87 840.15L600.88 840.16ZM596.38 838.46C596.75 839.46 596.36 840.13 595.14 840.59L590.2 842.44L589.1 839.52L594.04 837.67C595.26 837.21 596 837.46 596.38 838.46Z" fill="black"/>
<path d="M617.34 824.03L601.22 830.95L602.75 834.51L608.57 832.01L613.22 842.85L617.64 840.95L612.99 830.11L618.87 827.58L617.34 824.03Z" fill="black"/>
<path d="M637.38 822.59C636.19 822.32 634.61 822.55 632.68 823.28L628.55 824.97C627.6 825.32 626.93 825.49 626.53 825.47C626.18 825.45 625.94 825.3 625.8 825.01C625.65 824.7 625.76 824.35 626.12 823.94C626.52 823.49 627.38 822.94 628.67 822.31C629.78 821.77 630.67 821.5 631.34 821.5H631.36C632.01 821.5 632.54 821.76 632.99 822.27L633.1 822.39L637.17 819.65L637.05 819.49C636.04 818.2 634.69 817.51 633.06 817.44C631.45 817.39 629.47 817.91 627.17 819.03C624.66 820.25 622.91 821.61 621.97 823.07C621.01 824.56 620.88 826.06 621.59 827.51C622.17 828.71 623.09 829.47 624.3 829.76C625.5 830.05 627.05 829.83 628.9 829.11L632.95 827.45C633.69 827.17 634.27 826.99 634.67 826.91C635.04 826.84 635.32 826.84 635.49 826.92C635.66 827 635.8 827.15 635.91 827.38C636.07 827.71 635.95 828.08 635.55 828.5C635.11 828.97 634.17 829.55 632.75 830.24C631.54 830.83 630.51 831.14 629.73 831.1C628.95 831.08 628.34 830.8 627.85 830.25L627.74 830.13L623.67 832.87L623.79 833.03C624.86 834.41 626.28 835.14 628.02 835.21C628.11 835.21 628.2 835.21 628.29 835.21C629.95 835.21 631.95 834.64 634.25 833.52C637.01 832.18 638.87 830.76 639.78 829.3C640.71 827.82 640.82 826.32 640.1 824.85C639.5 823.61 638.58 822.84 637.37 822.57L637.38 822.59Z" fill="black"/>
<path d="M654.44 804.79L650.32 807.15L650.86 824.89L655.29 822.35L655.13 819.17L662.23 815.1L664.89 816.85L669.47 814.23L654.53 804.84L654.44 804.78V804.79ZM658.78 812.85L654.93 815.06L654.7 810.17L658.78 812.86V812.85Z" fill="black"/>
<path d="M684.56 785.85L680.32 788.61L682.99 798.6L674.42 792.44L670.72 794.84L672.98 805.15L664.88 798.64L660.59 801.43L673.88 811.33L673.98 811.41L677.72 808.98L675.57 798.38L684.43 804.62L688.25 802.13L684.62 786.11L684.56 785.85Z" fill="black"/>
<path d="M693.97 778.79L690.14 781.59L692.66 799.16L696.78 796.15L696.27 793.01L702.87 788.18L705.71 789.62L709.97 786.5L694.08 778.84L693.98 778.79H693.97ZM695.6 788.94L694.82 784.11L699.18 786.32L695.6 788.94Z" fill="black"/>
<path d="M719.91 769.15C719.98 767.97 719.6 766.87 718.78 765.86C717.79 764.64 716.58 763.98 715.18 763.9C713.79 763.83 712.35 764.39 710.9 765.57L702.46 772.42L712.21 784.44L712.33 784.59L716.06 781.56L712.84 777.59L714.77 776.03L721.4 777.15H721.48L726.1 773.42L718.56 772.26C719.39 771.28 719.84 770.24 719.9 769.16L719.91 769.15ZM715.1 768.96C715.43 769.37 715.56 769.76 715.48 770.15C715.4 770.55 715.1 770.96 714.6 771.37L710.5 774.69L708.53 772.27L712.63 768.95C713.64 768.13 714.43 768.13 715.1 768.95V768.96Z" fill="black"/>
<path d="M731.91 750.09C731.91 750.09 731.85 750.09 731.81 750.09C729.72 750.12 727.59 751.1 725.46 753.01L718.25 759.48L728.72 771.14L735.93 764.67C738.06 762.76 739.27 760.75 739.54 758.7C739.81 756.64 739.11 754.66 737.47 752.83C735.84 751.02 733.97 750.1 731.91 750.1V750.09ZM733.46 761.69L729.71 765.05L724.41 759.15L728.16 755.79C729.15 754.9 730.12 754.47 731.05 754.53C731.98 754.58 732.9 755.11 733.8 756.11C735.56 758.07 735.45 759.9 733.45 761.69H733.46Z" fill="black"/>
<path d="M750.92 738.92C749.71 739.05 748.29 739.78 746.69 741.09L743.33 744.02C742.55 744.66 741.96 745.04 741.58 745.14C741.24 745.24 740.96 745.17 740.74 744.94C740.5 744.7 740.49 744.33 740.7 743.82C740.93 743.27 741.57 742.47 742.59 741.45C743.48 740.57 744.25 740.02 744.88 739.81C745.5 739.61 746.08 739.67 746.67 740.01L746.81 740.09L749.78 736.18L749.61 736.07C748.23 735.17 746.74 734.95 745.17 735.42C743.63 735.88 741.92 737.02 740.11 738.82C738.13 740.78 736.91 742.64 736.49 744.32C736.06 746.04 736.42 747.5 737.56 748.65C738.5 749.6 739.61 750.02 740.86 749.91C742.09 749.8 743.48 749.09 745.01 747.81L748.31 744.94C748.92 744.44 749.41 744.08 749.76 743.87C750.09 743.68 750.35 743.6 750.54 743.62C750.73 743.64 750.91 743.74 751.08 743.92C751.34 744.18 751.35 744.57 751.1 745.1C750.83 745.68 750.13 746.54 749.01 747.65C748.05 748.6 747.18 749.2 746.43 749.44C745.69 749.68 745.02 749.61 744.38 749.24L744.24 749.16L741.27 753.07L741.44 753.18C742.4 753.81 743.42 754.13 744.48 754.13C745.03 754.13 745.58 754.05 746.15 753.88C747.79 753.39 749.59 752.18 751.5 750.28C753.68 748.12 754.98 746.18 755.37 744.5C755.77 742.79 755.39 741.34 754.24 740.18C753.27 739.2 752.16 738.77 750.92 738.9V738.92Z" fill="black"/>
<path d="M765.478 707.991L762.544 711.469L778.359 724.809L781.293 721.331L765.478 707.991Z" fill="black"/>
<path d="M798.58 686.32C797.47 685.51 796.29 685.26 795.1 685.59C793.92 685.91 792.64 686.85 791.27 688.4L788.42 691.83C787.75 692.58 787.23 693.05 786.87 693.22C786.55 693.37 786.27 693.35 786.01 693.16C785.73 692.96 785.66 692.6 785.79 692.06C785.93 691.47 786.43 690.59 787.28 689.42C788.01 688.41 788.69 687.75 789.28 687.44C789.86 687.14 790.44 687.11 791.08 687.35L791.23 687.41L793.54 683.07L793.36 682.99C791.86 682.32 790.35 682.35 788.87 683.06C787.42 683.76 785.92 685.16 784.42 687.23C782.78 689.49 781.87 691.51 781.73 693.24C781.58 695.01 782.17 696.39 783.48 697.34C784.56 698.12 785.72 698.36 786.94 698.05C788.13 697.74 789.4 696.82 790.7 695.32L793.5 691.96C794.02 691.36 794.45 690.93 794.76 690.68C795.05 690.44 795.3 690.32 795.49 690.31C795.68 690.3 795.87 690.37 796.07 690.52C796.37 690.74 796.44 691.12 796.28 691.68C796.11 692.3 795.55 693.26 794.62 694.53C793.83 695.62 793.07 696.35 792.36 696.71C791.66 697.06 790.99 697.1 790.3 696.84L790.15 696.78L787.84 701.11L788.02 701.19C788.8 701.54 789.57 701.71 790.34 701.71C791.16 701.71 791.97 701.52 792.77 701.13C794.31 700.39 795.89 698.9 797.48 696.72C799.28 694.24 800.26 692.11 800.38 690.4C800.5 688.65 799.9 687.28 798.58 686.32Z" fill="black"/>
<path d="M804.43 679.84L802.41 678.51L807.63 670.59L804.58 668.58L799.36 676.5L797.56 675.32L803.49 666.3L800.39 664.26L791.84 677.23L804.93 685.85L813.58 672.71L810.48 670.67L804.43 679.84Z" fill="black"/>
<path d="M808.16 651.3L805.81 655.29L805.75 655.39L815 670.54L817.59 666.15L815.88 663.47L820.04 656.42L823.22 656.62L825.9 652.08L808.28 651.31H808.17L808.16 651.3ZM811.04 655.84L815.92 656.15L813.67 659.97L811.05 655.83L811.04 655.84Z" fill="black"/>
<path d="M830.64 632.33C829.42 631.69 828.22 631.61 827.09 632.11C825.97 632.6 824.84 633.72 823.71 635.45L821.39 639.26C820.84 640.1 820.39 640.64 820.06 640.86C819.77 641.05 819.49 641.08 819.2 640.93C818.9 640.77 818.77 640.42 818.83 639.88C818.89 639.28 819.25 638.33 819.92 637.06C820.5 635.96 821.07 635.2 821.61 634.81C822.14 634.43 822.72 634.32 823.37 634.46L823.53 634.5L825.19 629.88L825 629.83C823.42 629.39 821.93 629.63 820.57 630.54C819.23 631.44 817.96 633.05 816.77 635.3C815.47 637.77 814.87 639.9 814.97 641.64C815.08 643.41 815.86 644.69 817.3 645.45C818.48 646.07 819.67 646.14 820.82 645.66C821.96 645.19 823.08 644.09 824.14 642.41L826.42 638.68C826.85 638.02 827.21 637.53 827.49 637.23C827.75 636.95 827.97 636.79 828.16 636.75C828.35 636.72 828.55 636.75 828.77 636.87C829.1 637.04 829.22 637.41 829.14 637.99C829.06 638.63 828.65 639.66 827.91 641.05C827.28 642.24 826.63 643.08 825.99 643.53C825.35 643.98 824.69 644.12 823.97 643.95L823.81 643.91L822.15 648.53L822.34 648.58C822.89 648.74 823.43 648.82 823.96 648.82C825.04 648.82 826.07 648.49 827.04 647.84C828.45 646.88 829.81 645.19 831.06 642.8C832.49 640.09 833.15 637.84 833.02 636.13C832.89 634.38 832.09 633.11 830.65 632.35L830.64 632.33Z" fill="black"/>
<path d="M837.86 610.25C836.34 609.55 834.84 609.31 833.41 609.54C831.98 609.77 830.63 610.45 829.41 611.55C828.2 612.65 827.14 614.17 826.26 616.07C825.38 617.98 824.91 619.77 824.85 621.41C824.8 623.06 825.15 624.53 825.9 625.77C826.65 627.01 827.81 628 829.33 628.7C830.45 629.22 831.56 629.48 832.65 629.48C833.01 629.48 833.38 629.45 833.73 629.39C835.16 629.16 836.5 628.48 837.73 627.37C838.95 626.27 840.02 624.75 840.9 622.85C841.78 620.95 842.25 619.15 842.29 617.51C842.33 615.86 841.98 614.4 841.23 613.16C840.48 611.92 839.35 610.94 837.85 610.25H837.86ZM837.39 621.22C836.65 622.82 835.77 623.88 834.77 624.38C833.79 624.87 832.65 624.82 831.39 624.24C828.81 623.05 828.28 620.9 829.76 617.7C830.83 615.38 832.17 614.23 833.8 614.23C834.42 614.23 835.08 614.39 835.79 614.72C837.05 615.3 837.83 616.14 838.09 617.2C838.36 618.28 838.12 619.63 837.39 621.22Z" fill="black"/>
<path d="M837.08 591.2L846.42 594.93L833.78 599.63L833.71 599.66L831.99 603.95L846.54 609.76L848.2 605.61L838.88 601.89L851.57 597.16L853.28 592.89L838.73 587.08L837.08 591.2Z" fill="black"/>
<path d="M860.92 566.85C860.51 565.15 859.48 564.02 857.85 563.49C856.3 562.99 854.9 563.21 853.71 564.15C852.54 565.07 851.6 566.62 850.91 568.75C850.52 569.97 850.32 571.12 850.31 572.16C850.31 573.03 850.44 573.81 850.69 574.48C849.59 573.99 848.85 573.34 848.48 572.54C848.07 571.64 848.09 570.5 848.52 569.15C849.13 567.25 849.9 566.28 850.8 566.28H850.97L851.54 561.49H851.26C849.85 561.49 848.61 562.05 847.57 563.17C846.53 564.29 845.66 565.91 844.99 567.99C844.4 569.84 844.19 571.54 844.37 573.04C844.55 574.55 845.12 575.86 846.04 576.92C846.96 577.98 848.25 578.78 849.85 579.3C850.9 579.64 851.9 579.81 852.83 579.81C854.06 579.81 855.19 579.52 856.21 578.94C858.01 577.92 859.37 575.99 860.27 573.19C861.09 570.64 861.3 568.51 860.9 566.84L860.92 566.85ZM856.76 572.04C856.04 574.28 855.18 575.26 854.23 574.95C853.23 574.63 853.09 573.33 853.81 571.09C854.46 569.09 855.21 568.08 856.06 568.08C856.18 568.08 856.3 568.1 856.42 568.14C857.38 568.45 857.49 569.76 856.76 572.05V572.04Z" fill="black"/>
<path d="M39.24 310.41L30.61 307.51L38.39 305.31L39.67 301.49L34.63 295.01L43.42 297.96L44.85 293.69L29.99 288.71L28.42 293.39L34.93 301.97L24.55 304.95L22.95 309.71L37.8 314.7L39.24 310.41Z" fill="black"/>
<path d="M51.72 276.26L48.26 274.9L44.24 285.13L41.99 284.24L45.46 275.42L42.06 274.08L38.59 282.9L36.58 282.11L40.53 272.07L37.07 270.71L31.38 285.17L45.96 290.9L51.72 276.26Z" fill="black"/>
<path d="M51.76 275.74L54.31 270.19L50.88 262.19L56.74 264.87L58.71 260.58L52.75 257.85L61.15 255.27L63.69 249.72L52.74 253.27L49.38 243.35L46.91 248.72L46.88 248.79L49.81 256.5L44.47 254.05L42.5 258.35L47.89 260.82L40.1 263.59L37.6 269.05L47.4 265.17L51.76 275.74Z" fill="black"/>
<path d="M57.17 242.45C58.1 243.04 58.86 243.57 59.41 244.02C59.95 244.47 60.36 244.9 60.62 245.31C60.86 245.69 61.04 246.1 61.13 246.52L60.39 247.92L67.03 251.45L69.19 247.4L65.97 245.68L71.59 235.13L74.81 236.85L76.98 232.78L70.34 229.25L69.38 231.04L58.97 225.49L51.65 239.24L53.64 240.35C55.05 241.15 56.24 241.86 57.18 242.45H57.17ZM63.43 242.2C63.16 241.67 62.79 241.15 62.34 240.65C61.79 240.05 61.09 239.47 60.25 238.92C59.46 238.39 58.43 237.77 57.19 237.06L60.15 231.5L67.15 235.23L63.44 242.2H63.43Z" fill="black"/>
<path d="M75.84 227.59L78.6 222.93L70 206.73L67.29 211.3L71.09 218.44L62.86 218.77L60 223.57L73.35 222.86L75.84 227.59Z" fill="black"/>
<path d="M78.61 193.63L83.37 196.77L78.42 204.27L73.66 201.12L71.01 205.14L84.09 213.77L86.74 209.76L81.65 206.4L86.6 198.91L91.68 202.26L94.33 198.25L81.26 189.62L78.61 193.63Z" fill="black"/>
<path d="M96.54 190.34L101.38 183.74L104.52 184.26L107.64 180.01L90.07 177.47L87.26 181.3L94.95 197.3L97.97 193.19L96.53 190.35L96.54 190.34ZM97.31 183.08L94.68 186.66L92.48 182.28L97.3 183.08H97.31Z" fill="black"/>
<path d="M111.43 175.4L108.17 172.76L111.71 168.39C112.54 167.36 113.09 166.32 113.34 165.27C113.59 164.22 113.55 163.21 113.23 162.26C112.9 161.31 112.29 160.46 111.39 159.74C110.47 159 109.5 158.55 108.51 158.42C107.52 158.28 106.52 158.44 105.56 158.88C104.6 159.32 103.71 160.05 102.9 161.04L96.23 169.29L108.41 179.14L111.43 175.4ZM102.2 167.94L105.3 164.11C105.79 163.5 106.3 163.14 106.8 163.05C107.3 162.96 107.79 163.13 108.32 163.55C109.3 164.34 109.29 165.32 108.31 166.53L105.21 170.36L102.2 167.93V167.94Z" fill="black"/>
<path d="M113.94 159.88C115.17 160.98 116.52 161.63 117.96 161.82C118.27 161.86 118.57 161.88 118.88 161.88C120.02 161.88 121.19 161.6 122.37 161.05C123.86 160.35 125.32 159.21 126.72 157.64C128.12 156.07 129.09 154.49 129.6 152.94C130.12 151.38 130.2 149.87 129.85 148.47C129.5 147.07 128.69 145.8 127.46 144.7C126.21 143.58 124.84 142.92 123.4 142.72C121.96 142.52 120.48 142.78 118.99 143.48C117.51 144.18 116.06 145.32 114.66 146.89C113.26 148.46 112.29 150.04 111.76 151.59C111.23 153.15 111.14 154.66 111.51 156.07C111.87 157.48 112.69 158.76 113.94 159.87V159.88ZM115.71 153.14C115.76 152.02 116.38 150.79 117.55 149.48C118.72 148.17 119.87 147.42 120.97 147.24C121.14 147.21 121.31 147.2 121.48 147.2C122.4 147.2 123.3 147.6 124.19 148.39C126.29 150.26 126.18 152.45 123.83 155.08C122.66 156.4 121.51 157.16 120.41 157.34C119.33 157.52 118.25 157.15 117.21 156.22C116.16 155.29 115.65 154.25 115.71 153.15V153.14Z" fill="black"/>
<path d="M129.22 140.79C129.95 141.62 130.52 142.34 130.92 142.94C131.31 143.53 131.58 144.06 131.71 144.52C131.83 144.96 131.88 145.39 131.86 145.82L130.75 146.95L136.11 152.23L139.33 148.96L136.73 146.4L145.11 137.89L147.71 140.45L150.95 137.16L145.59 131.88L144.16 133.33L135.75 125.05L124.82 136.15L126.41 137.78C127.53 138.95 128.47 139.96 129.21 140.8L129.22 140.79ZM130.77 135.62L135.19 131.13L140.84 136.69L135.3 142.32C135.19 141.74 134.98 141.13 134.69 140.52C134.33 139.79 133.82 139.03 133.18 138.27C132.57 137.54 131.76 136.65 130.77 135.61V135.62Z" fill="black"/>
<path d="M153.27 130.04L149.15 125.55L155.77 119.48L159.89 123.97L163.43 120.72L152.84 109.18L149.29 112.43L153.15 116.63L146.53 122.7L142.68 118.5L139.14 121.75L149.73 133.29L153.27 130.04Z" fill="black"/>
<path d="M160.69 102.55L164.27 119.94L168.2 116.68L167.5 113.57L173.8 108.35L176.72 109.61L180.78 106.24L164.35 99.51L160.7 102.54L160.69 102.55ZM166.59 109.55L165.52 104.77L170 106.71L166.59 109.54V109.55Z" fill="black"/>
<path d="M178.4 99.37C179.51 99.56 180.69 99.37 181.91 98.82L181.11 106.01L185.75 102.53L186.41 95.94L188.54 94.34L191.47 98.24L195.32 95.35L185.91 82.82L177.18 89.37C176.17 90.13 175.42 90.97 174.94 91.88C174.46 92.8 174.25 93.75 174.31 94.7C174.38 95.66 174.75 96.59 175.4 97.46C176.19 98.51 177.2 99.14 178.41 99.35L178.4 99.37ZM184.24 88.64L186.34 91.43L182.07 94.64C180.92 95.5 180.03 95.46 179.33 94.53C178.97 94.05 178.85 93.61 178.95 93.17C179.05 92.73 179.4 92.28 179.98 91.85L184.25 88.64H184.24Z" fill="black"/>
<path d="M207.53 72.83L214.01 82.68L218.03 80.04L209.42 66.95L194.19 76.96L202.8 90.05L206.82 87.41L200.34 77.55L207.53 72.83Z" fill="black"/>
<path d="M230.05 67.19C230.65 66.29 230.97 65.33 231 64.33C231.03 63.33 230.74 62.32 230.16 61.32C229.56 60.3 228.81 59.55 227.93 59.08C227.05 58.61 226.06 58.4 225 58.48C223.95 58.56 222.85 58.93 221.76 59.58L212.63 64.98L220.61 78.46L224.75 76.01L222.61 72.4L227.45 69.54C228.58 68.87 229.46 68.08 230.06 67.19H230.05ZM226.18 65.32C226.01 65.78 225.58 66.22 224.9 66.62L220.66 69.13L218.69 65.8L222.93 63.29C223.61 62.89 224.2 62.73 224.7 62.82C225.19 62.91 225.6 63.24 225.95 63.82C226.27 64.36 226.35 64.85 226.18 65.31V65.32Z" fill="black"/>
<path d="M250.58 61.6L248.83 58.33L239.14 63.51L237.99 61.37L246.36 56.9L244.63 53.68L236.27 58.15L235.25 56.25L244.77 51.16L243.02 47.88L229.32 55.21L236.71 69.02L250.58 61.6Z" fill="black"/>
<path d="M256.7 58.58L252.82 50.34L259.79 54.44L263.43 52.73L264.63 44.61L268.58 52.99L272.65 51.08L265.98 36.9L261.51 39L259.81 49.64L250.48 44.19L245.93 46.33L252.6 60.51L256.7 58.58Z" fill="black"/>
<path d="M279.63 48.22L284.45 35.97L288.03 44.82L292.35 43.07L286.47 28.55L282.25 30.26L277.43 42.49L273.85 33.66L269.54 35.4L275.42 49.93L279.63 48.22Z" fill="black"/>
<path d="M304.53 33.6L306.14 38.2L310.68 36.61L305.51 21.82L295.21 25.42C294.02 25.84 293.05 26.41 292.31 27.13C291.57 27.86 291.08 28.7 290.86 29.63C290.64 30.56 290.7 31.56 291.07 32.59C291.5 33.83 292.28 34.74 293.37 35.3C294.37 35.82 295.55 36 296.88 35.84L293.94 42.45L299.42 40.54L302.04 34.46L304.55 33.58L304.53 33.6ZM295.7 30.98C295.31 29.86 295.78 29.09 297.13 28.62L302.17 26.86L303.32 30.16L298.28 31.92C296.93 32.39 296.08 32.09 295.7 30.98Z" fill="black"/>
<path d="M333.49 28.91C334.85 27.69 335.31 26.27 334.86 24.69C334.39 23.03 333.16 22.15 331.2 22.09C331.85 21.58 332.31 21.04 332.57 20.48C332.9 19.79 332.95 19.04 332.73 18.25C332.32 16.79 331.23 15.91 329.5 15.61C327.82 15.33 325.56 15.58 322.78 16.36C320.32 17.05 318.5 18 317.36 19.17C316.21 20.35 315.65 21.79 315.71 23.44V23.63L320.44 23.31V23.12C320.37 22.31 320.6 21.65 321.12 21.12C321.65 20.58 322.54 20.13 323.77 19.78C325.1 19.4 326.13 19.25 326.84 19.32C327.49 19.39 327.87 19.61 327.98 20.01C328.1 20.42 328.02 20.77 327.74 21.07C327.44 21.39 326.86 21.68 326.01 21.91L321.73 23.12L322.71 26.59L327.16 25.33C327.99 25.09 328.62 25.03 329.03 25.14C329.41 25.24 329.65 25.5 329.77 25.92C329.89 26.35 329.69 26.75 329.16 27.16C328.59 27.6 327.58 28.02 326.17 28.42C324.88 28.78 323.86 28.85 323.15 28.63C322.44 28.4 321.93 27.92 321.58 27.14L321.5 26.96L317.02 29.21L317.1 29.38C317.88 30.98 319.13 32 320.82 32.39C321.4 32.53 322.05 32.6 322.74 32.6C324.03 32.6 325.5 32.37 327.15 31.9C330.04 31.08 332.17 30.07 333.49 28.89V28.91Z" fill="black"/>
<path d="M341.71 24.89L349.68 23.04L351.73 25.48L356.87 24.29L345.19 10.92L340.57 11.99L335.98 29.14L340.95 27.99L341.71 24.9V24.89ZM342.7 20.89L343.88 16.14L347.02 19.89L342.7 20.89Z" fill="black"/>
<path d="M368.54 22.19L367.84 18.05L373.39 17.11C374.69 16.89 375.79 16.47 376.67 15.85C377.55 15.23 378.2 14.44 378.58 13.52C378.96 12.59 379.06 11.55 378.87 10.41C378.67 9.25 378.24 8.27 377.59 7.51C376.94 6.75 376.09 6.21 375.07 5.9C374.06 5.59 372.91 5.55 371.65 5.76L361.19 7.53L363.8 22.98L368.54 22.18V22.19ZM366.57 10.49L371.43 9.67C372.97 9.41 373.83 9.93 374.06 11.25C374.17 11.87 374.06 12.35 373.74 12.72C373.41 13.09 372.86 13.35 372.08 13.48L367.22 14.3L366.58 10.49H366.57Z" fill="black"/>
<path d="M385.14 16.73L393.26 15.72L395.04 18.36L400.28 17.71L390.06 3.20001L385.35 3.79001L379 20.37L384.06 19.74L385.14 16.74V16.73ZM386.54 12.85L388.21 8.25001L390.94 12.3L386.54 12.85Z" fill="black"/>
<path d="M408.89 17.31C411.88 17.08 414.17 16.5 415.7 15.6C417.27 14.67 418 13.37 417.87 11.73C417.74 10.01 416.7 8.90998 414.79 8.45998C415.53 8.08998 416.08 7.64998 416.45 7.14998C416.91 6.52998 417.1 5.80998 417.04 4.99998C416.92 3.48998 416.03 2.40998 414.39 1.77998C412.8 1.16998 410.53 0.979978 407.66 1.19998C405.11 1.39998 403.14 1.96998 401.79 2.88998C400.43 3.81998 399.6 5.11998 399.34 6.74998L399.31 6.93998L404 7.54998L404.02 7.35998C404.12 6.54998 404.47 5.95998 405.09 5.53998C405.72 5.10998 406.68 4.84998 407.95 4.74998C409.33 4.63998 410.37 4.68998 411.05 4.89998C411.68 5.08998 412 5.38998 412.03 5.79998C412.06 6.22998 411.92 6.54998 411.58 6.78998C411.22 7.04998 410.6 7.20998 409.72 7.27998L405.29 7.62998L405.57 11.23L410.18 10.87C411.04 10.8 411.67 10.87 412.05 11.05C412.4 11.22 412.59 11.52 412.62 11.96C412.65 12.4 412.38 12.76 411.78 13.06C411.14 13.38 410.07 13.6 408.6 13.71C407.27 13.81 406.25 13.68 405.59 13.32C404.94 12.96 404.53 12.38 404.34 11.55L404.3 11.36L399.47 12.69L399.52 12.87C399.97 14.59 401 15.83 402.57 16.55C403.77 17.1 405.32 17.38 407.19 17.38C407.73 17.38 408.29 17.36 408.88 17.31H408.89Z" fill="black"/>
<path d="M432.4 15.86C434.21 15.8 435.63 15.37 436.61 14.56C437.61 13.74 438.1 12.63 438.05 11.25C438.02 10.32 437.7 9.52002 437.1 8.86002C436.59 8.31002 435.9 7.90002 435.04 7.63002C435.72 7.25002 436.25 6.80002 436.61 6.29002C437.05 5.66002 437.26 4.95002 437.24 4.17002C437.2 2.86002 436.66 1.85002 435.64 1.15002C434.64 0.470017 433.27 0.150017 431.6 0.200017L419.93 0.570017L420.43 16.23L432.41 15.85L432.4 15.86ZM433.11 11.06C433.13 11.59 432.97 12.3 431.44 12.35L425.03 12.55L424.95 10L431.4 9.80002C432.9 9.75002 433.09 10.5 433.11 11.07V11.06ZM424.76 3.97002L430.86 3.78002C431.41 3.76002 431.83 3.86002 432.1 4.06002C432.36 4.25002 432.49 4.55002 432.51 4.97002C432.53 5.51002 432.38 6.23002 430.95 6.28002L424.85 6.47002L424.77 3.98002L424.76 3.97002Z" fill="black"/>
<path d="M454 15.89L458.66 15.96L458.91 0.3L454.37 0.22L445.15 9.6L445.3 0.08L440.65 0L440.39 15.67L444.94 15.74L454.16 6.34L454 15.89Z" fill="black"/>
<path d="M466.56 16.24L466.55 16.42L471.35 16.72L472.08 4.94001L478.47 5.34001L478.71 1.48001L461.2 0.390015L460.96 4.26002L467.28 4.65001L466.56 16.24Z" fill="black"/>
<path d="M497.46 19.2L499.12 3.79997L499.14 3.61997L494.62 3.12997L484.59 11.63L485.61 2.15997L480.98 1.65997L479.32 17.05L479.3 17.24L483.82 17.72L493.86 9.19997L492.83 18.7L497.46 19.2Z" fill="black"/>
<path d="M500.48 19.63L516.03 22.04L516.6 18.37L505.74 16.69L506.11 14.29L515.48 15.74L516.04 12.13L506.67 10.68L507 8.55002L517.66 10.2L518.23 6.53002L502.88 4.15002L500.48 19.63Z" fill="black"/>
<path d="M526.55 24.07L531.85 25.21L544.46 11.89L539.26 10.78L533.7 16.66L530.81 9.04998L530.77 8.95998L525.31 7.78998L530.24 20.21L526.55 24.07Z" fill="black"/>
<path d="M543.34 22.64C542.99 22.98 542.61 23.17 542.18 23.21C541.74 23.25 541.24 23.21 540.69 23.1L540.5 23.06L539.84 27.1L540 27.14C541.35 27.51 542.52 27.65 543.46 27.55C544.42 27.45 545.31 27.1 546.12 26.5C546.58 26.14 547.01 25.72 547.38 25.24C547.75 24.76 548.1 24.17 548.43 23.48C548.75 22.8 549.09 21.94 549.44 20.93C549.77 19.97 550.14 18.81 550.53 17.48L556.73 19.1L553.74 30.51L558.39 31.73L562.31 16.75L562.36 16.57L546.98 12.54L546.26 15C545.79 16.63 545.39 17.98 545.08 19C544.77 20 544.48 20.79 544.22 21.36C543.96 21.9 543.67 22.33 543.35 22.64H543.34Z" fill="black"/>
<path d="M577.15 27.55L574.28 36.66L578.72 38.06L583.44 23.12L579.1 21.75L567.59 28.11L570.46 19.02L566.02 17.62L561.3 32.56L565.64 33.93L577.15 27.55Z" fill="black"/>
<path d="M589.15 36.81C590.03 37.14 590.94 37.38 591.84 37.54C592.66 37.69 593.55 37.79 594.46 37.84L592.51 43.11L597.02 44.78L602.45 30.08L597.94 28.41L595.77 34.29C594.96 34.2 594.24 34.09 593.64 33.96C593.01 33.82 592.38 33.64 591.77 33.42C590.61 32.99 589.84 32.48 589.49 31.9C589.14 31.33 589.13 30.59 589.46 29.69L590.9 25.81L586.39 24.14L584.61 28.95C583.94 30.77 583.97 32.35 584.72 33.65C585.46 34.93 586.95 36 589.15 36.81Z" fill="black"/>
<path d="M599.84 45.87L604.26 47.76L606.66 42.15L614.91 45.68L612.52 51.28L616.94 53.17L623.02 38.93L623.09 38.76L618.67 36.87L616.43 42.12L608.17 38.59L610.41 33.35L605.99 31.46L599.91 45.7L599.84 45.87Z" fill="black"/>
<path d="M621.41 51.35C621.61 52.78 622.26 54.14 623.34 55.4C624.41 56.64 625.91 57.74 627.8 58.66C629.69 59.58 631.47 60.09 633.1 60.16C633.26 60.16 633.41 60.17 633.57 60.17C635.02 60.17 636.33 59.84 637.47 59.19C638.73 58.47 639.73 57.35 640.45 55.87C641.19 54.36 641.46 52.87 641.26 51.43C641.06 49.99 640.41 48.63 639.34 47.39C638.27 46.15 636.77 45.06 634.89 44.14C633 43.22 631.22 42.71 629.58 42.62C627.93 42.53 626.46 42.86 625.2 43.58C623.94 44.31 622.93 45.44 622.2 46.95C621.48 48.43 621.21 49.91 621.42 51.34L621.41 51.35ZM626.61 49.12C627.23 47.86 628.08 47.09 629.16 46.84C630.25 46.59 631.6 46.85 633.19 47.62C636.35 49.17 637.28 51.16 636.04 53.71C634.8 56.24 632.67 56.72 629.5 55.17C627.92 54.4 626.87 53.49 626.4 52.49C625.93 51.5 626.01 50.36 626.62 49.11L626.61 49.12Z" fill="black"/>
<path d="M654.57 54.36C655.85 55.07 657.07 55.42 658.19 55.42C658.51 55.42 658.81 55.39 659.12 55.34C660.51 55.08 661.6 54.28 662.33 52.94L662.42 52.78L658.67 50.71L658.58 50.87C658.34 51.31 658.01 51.58 657.58 51.69C657.16 51.8 656.69 51.71 656.18 51.43C655.69 51.16 655.37 50.81 655.24 50.39C655.1 49.97 655.16 49.55 655.4 49.11L655.49 48.95L651.72 46.87L651.63 47.03C650.89 48.36 650.79 49.71 651.31 51.02C651.83 52.32 652.92 53.44 654.56 54.35L654.57 54.36Z" fill="black"/>
<path d="M650.68 70.41L654.76 72.66L662.33 58.95L658.35 56.75L645.81 60.71L650.42 52.37L646.34 50.12L638.77 63.83L642.75 66.03L655.3 62.05L650.68 70.41Z" fill="black"/>
<path d="M670.13 74.47L672.9 83.92L678.68 87.6L675.17 75.49L686.9 74.26L681.45 70.79L681.4 70.76L671.75 71.93L675.07 66.72L671.07 64.17L662.75 77.23L662.65 77.38L666.65 79.93L670.13 74.47Z" fill="black"/>
<path d="M686.55 93.2L703.37 85.91L699.04 82.84L691.61 86.07L691.94 77.93V77.83L687.38 74.61L687.03 87.97L682.12 90.07L686.55 93.2Z" fill="black"/>
<path d="M699.44 94.54C698.99 94.94 698.55 95.22 698.14 95.37C697.69 95.54 697.25 95.56 696.85 95.44C696.43 95.3 695.98 95.07 695.52 94.75L695.36 94.64L693.16 98.1L693.29 98.2C694.39 99.07 695.41 99.65 696.31 99.94C697.23 100.23 698.19 100.25 699.17 100.02C699.74 99.87 700.29 99.65 700.82 99.35C701.35 99.06 701.91 98.65 702.48 98.14C703.05 97.64 703.69 96.98 704.41 96.19C705.09 95.44 705.88 94.51 706.77 93.44L711.83 97.36L704.6 106.68L708.4 109.63L718 97.25L705.43 87.51L703.8 89.49C702.74 90.79 701.84 91.87 701.14 92.71C700.46 93.51 699.88 94.13 699.42 94.54H699.44Z" fill="black"/>
<path d="M719.14 118.72C720.08 119.52 721.06 120.05 722.05 120.3C722.5 120.41 722.94 120.47 723.38 120.47C723.92 120.47 724.45 120.38 724.97 120.21C725.91 119.9 726.74 119.32 727.46 118.47C728.19 117.62 728.63 116.69 728.79 115.73C728.94 114.76 728.81 113.79 728.41 112.84C728.01 111.9 727.33 111.02 726.39 110.22L721.66 106.19L724.58 102.76L720.92 99.64L710.76 111.56L719.15 118.71L719.14 118.72ZM716.88 111.79L719.19 109.08L723.47 112.73C724.44 113.56 724.52 114.37 723.74 115.3C722.95 116.22 722.13 116.27 721.16 115.44L716.88 111.79Z" fill="black"/>
<path d="M727.87 126.49L731.4 129.75L739.41 121.09L744.11 125.44L746.74 122.6L733.86 110.68L731.23 113.52L735.88 117.82L727.87 126.49Z" fill="black"/>
<path d="M739.67 137.66L743.48 141.51L761.32 137.27L757.59 133.5L749.72 135.37L751.48 127.32L747.55 123.35L744.87 136.45L739.67 137.66Z" fill="black"/>
<path d="M765.98 156.59C766.28 156.59 766.57 156.56 766.86 156.51C767.85 156.34 768.78 155.86 769.64 155.08C770.51 154.29 771.1 153.4 771.39 152.44C771.68 151.48 771.68 150.47 771.39 149.45C771.1 148.43 770.52 147.44 769.67 146.49L762.55 138.63L750.93 149.14L754.16 152.71L757.27 149.89L761.05 154.06C761.93 155.04 762.89 155.74 763.88 156.15C764.58 156.44 765.29 156.58 765.99 156.58L765.98 156.59ZM763.39 151L760.08 147.35L762.95 144.76L766.26 148.41C766.79 148.99 767.06 149.55 767.07 150.05C767.08 150.55 766.84 151.02 766.34 151.47C765.87 151.89 765.41 152.06 764.93 151.99C764.44 151.92 763.92 151.58 763.4 151H763.39Z" fill="black"/>
<path d="M770.41 171.49C771.19 172.45 772.06 173.15 772.99 173.57C773.7 173.9 774.44 174.06 775.18 174.06C775.41 174.06 775.65 174.04 775.88 174.01C776.86 173.88 777.79 173.45 778.65 172.75C779.52 172.04 780.13 171.21 780.45 170.29C780.77 169.37 780.82 168.39 780.6 167.38C780.37 166.38 779.86 165.39 779.09 164.43L775.17 159.61L778.66 156.77L775.62 153.04L763.47 162.93L770.43 171.48L770.41 171.49ZM775.55 168.96C775.09 169.34 774.64 169.5 774.22 169.45C773.8 169.4 773.39 169.12 772.99 168.63L769.44 164.27L772.2 162.02L775.75 166.38C776.55 167.37 776.49 168.18 775.55 168.95V168.96Z" fill="black"/>
<path d="M787.25 167.359L775.096 177.25L778.132 180.981L790.286 171.089L787.25 167.359Z" fill="black"/>
<path d="M786.19 192.04L799.22 193.96L791.4 199.45L794.08 203.26L806.9 194.25L804.28 190.53L791.27 188.59L799.07 183.11L796.39 179.3L783.58 188.32L786.19 192.04Z" fill="black"/>
<path d="M802.17 209.18C801.55 210.48 801.35 211.95 801.56 213.55C801.78 215.15 802.45 216.87 803.55 218.67C804.88 220.84 806.38 222.38 808.01 223.25C808.99 223.77 810.01 224.04 811.06 224.04C811.77 224.04 812.49 223.92 813.21 223.68L813.39 223.62L811.63 218.93L811.46 218.99C809.71 219.62 808.2 218.86 806.85 216.65C805.07 213.74 805.37 211.6 807.78 210.12C808.97 209.39 810.1 209.19 811.12 209.54C812.16 209.89 813.13 210.8 814.02 212.26C815.33 214.4 815.34 216.07 814.06 217.38L813.94 217.51L817.36 221.25L817.5 221.11C818.81 219.77 819.45 218.14 819.4 216.29C819.35 214.45 818.65 212.42 817.32 210.25C816.26 208.52 815.05 207.17 813.72 206.24C812.38 205.3 810.97 204.8 809.52 204.73C808.07 204.67 806.62 205.07 805.21 205.93C803.81 206.79 802.78 207.88 802.16 209.18H802.17Z" fill="black"/>
<path d="M811.86 232.34L822.21 226.68L826.34 234.23L815.99 239.89L818.3 244.11L832.04 236.59L823.3 220.61L809.55 228.12L811.86 232.34Z" fill="black"/>
<path d="M826.26 242.47C824.78 243.19 823.66 244.19 822.93 245.44C822.2 246.69 821.87 248.16 821.95 249.81C822.02 251.45 822.52 253.24 823.44 255.13C824.35 257.02 825.44 258.52 826.68 259.59C827.93 260.67 829.28 261.32 830.71 261.53C831.03 261.58 831.36 261.6 831.68 261.6C832.8 261.6 833.95 261.32 835.1 260.76C836.61 260.03 837.75 259.02 838.48 257.77C839.21 256.52 839.55 255.05 839.47 253.4C839.39 251.77 838.89 249.98 837.98 248.09C837.07 246.2 835.98 244.7 834.75 243.61C833.51 242.52 832.15 241.87 830.71 241.66C829.27 241.45 827.78 241.72 826.27 242.45L826.26 242.47ZM834.49 249.79C835.25 251.37 835.51 252.72 835.25 253.8C835 254.87 834.22 255.72 832.96 256.33C831.71 256.93 830.57 257 829.58 256.54C828.58 256.06 827.68 255.02 826.92 253.44C826.15 251.85 825.89 250.5 826.14 249.41C826.39 248.34 827.15 247.49 828.4 246.89C829.12 246.54 829.8 246.37 830.43 246.37C830.92 246.37 831.38 246.47 831.81 246.68C832.82 247.16 833.72 248.2 834.49 249.79Z" fill="black"/>
<path d="M828.84 265.99L830.72 270.42L834.58 268.78L836.78 273.96C837.3 275.17 837.97 276.15 838.77 276.86C839.58 277.57 840.49 278.02 841.48 278.18C841.74 278.22 841.99 278.24 842.26 278.24C843.01 278.24 843.79 278.07 844.57 277.74C845.66 277.28 846.5 276.63 847.09 275.82C847.68 275.01 848 274.06 848.07 272.99C848.13 271.93 847.91 270.8 847.41 269.63L843.33 260.04L843.26 259.87L829.02 265.93L828.85 266L828.84 265.99ZM841.64 265.77L843.57 270.3C844.18 271.74 843.88 272.7 842.64 273.22C841.48 273.71 840.62 273.25 840.01 271.81L838.08 267.28L841.64 265.77Z" fill="black"/>
<path d="M849.08 284.23L838.2 288.29L838.03 288.36L839.71 292.86L850.76 288.73L853 294.73L856.63 293.37L850.48 276.94L846.86 278.29L849.08 284.23Z" fill="black"/>
<path d="M842.73 301.28L845.88 301.76L848.43 309.53L846.18 311.79L847.83 316.8L860.11 303.98L858.63 299.47L841.14 296.43L842.73 301.28ZM851.34 306.61L849.95 302.39L854.79 303.15L851.34 306.61Z" fill="black"/>
<path d="M830.43 347.61C825.33 325.84 818.38 304.51 809.59 283.72C789.52 236.28 760.8 193.67 724.21 157.08C687.62 120.5 645.02 91.77 597.57 71.7C548.45 50.92 496.27 40.39 442.49 40.39C388.71 40.39 336.54 50.92 287.41 71.7C239.97 91.77 197.36 120.49 160.77 157.08C124.18 193.67 95.46 236.27 75.39 283.72C66.6 304.51 59.65 325.84 54.55 347.61H0V529.99H54.57C59.68 551.76 66.63 573.09 75.42 593.88C95.48 641.32 124.21 683.93 160.8 720.52C197.39 757.11 239.99 785.83 287.44 805.9C336.56 826.68 388.74 837.21 442.52 837.21C496.3 837.21 548.47 826.68 597.6 805.9C645.04 785.84 687.65 757.11 724.24 720.52C760.82 683.93 789.55 641.33 809.62 593.88C818.41 573.09 825.36 551.76 830.46 529.99H885.03V347.61H830.46H830.43ZM818.06 347.61H639.41C637.18 328.62 634.26 310.03 630.66 291.99C682.34 283.73 733.36 272.05 783.44 257C798.59 285.29 810.31 315.68 818.06 347.61ZM777.49 246.3C728.54 260.89 678.69 272.24 628.21 280.28C618.41 235.49 604.41 194.28 586.59 158.64C585.03 155.52 583.44 152.46 581.84 149.45C605.67 139.8 628.56 127.62 650.17 113.03C702.55 146.54 746.35 192.33 777.49 246.3ZM638.96 106.13C618.97 119.2 597.89 130.17 575.99 138.93C560.11 111.41 542.25 89.17 522.73 72.66C515.37 66.43 507.87 61.1 500.24 56.68C550.24 64.2 597.13 81.33 638.96 106.13ZM448.48 52.56C491.27 55.27 531.84 87.04 564.67 143.24C527.68 156.6 488.53 163.8 448.48 164.45V52.56ZM448.48 176.41C490.61 175.74 531.76 168.07 570.6 153.8C572.39 157.13 574.16 160.53 575.89 164C593.19 198.59 606.81 238.58 616.38 282.1C561.02 290.34 504.93 294.62 448.48 294.9V176.4V176.41ZM448.48 306.87C505.76 306.59 562.67 302.23 618.83 293.83C622.33 311.28 625.18 329.24 627.37 347.62H448.48V306.87ZM268.62 282.11C278.2 238.59 291.81 198.6 309.11 164.01C310.85 160.53 312.61 157.13 314.4 153.81C353.24 168.08 394.4 175.76 436.52 176.42V294.92C380.06 294.64 323.97 290.35 268.62 282.12V282.11ZM436.52 306.87V347.62H257.63C259.83 329.25 262.67 311.28 266.17 293.83C322.33 302.22 379.24 306.58 436.52 306.87ZM320.33 143.24C353.15 87.05 393.72 55.28 436.52 52.56V164.45C396.47 163.8 357.33 156.59 320.33 143.24ZM384.75 56.68C377.13 61.1 369.62 66.43 362.27 72.66C342.75 89.17 324.89 111.41 309.01 138.93C287.11 130.17 266.04 119.2 246.04 106.13C287.88 81.33 334.76 64.2 384.75 56.68ZM234.82 113.04C256.44 127.64 279.32 139.81 303.15 149.46C301.55 152.46 299.97 155.52 298.4 158.65C280.58 194.29 266.57 235.5 256.78 280.29C206.3 272.25 156.44 260.9 107.5 246.31C138.63 192.34 182.44 146.55 234.82 113.04ZM101.57 257C151.65 272.05 202.67 283.73 254.35 291.99C250.75 310.03 247.83 328.62 245.6 347.61H66.94C74.69 315.69 86.41 285.29 101.56 257H101.57ZM66.95 529.99H245.6C247.83 548.98 250.75 567.57 254.35 585.61C202.67 593.86 151.65 605.55 101.57 620.61C86.42 592.31 74.7 561.92 66.95 529.99ZM107.51 631.3C156.45 616.71 206.31 605.36 256.79 597.33C266.58 642.11 280.59 683.32 298.41 718.96C299.97 722.08 301.55 725.14 303.16 728.15C279.33 737.8 256.44 749.98 234.83 764.57C182.45 731.06 138.65 685.28 107.51 631.3ZM246.04 771.47C266.03 758.4 287.11 747.43 309.01 738.67C324.89 766.19 342.75 788.43 362.27 804.94C369.62 811.17 377.13 816.49 384.75 820.92C334.76 813.4 287.86 796.27 246.04 771.47ZM436.52 825.04C393.73 822.33 353.16 790.56 320.33 734.36C357.33 721 396.47 713.8 436.52 713.15V825.04ZM436.52 701.19C394.39 701.86 353.24 709.53 314.4 723.8C312.61 720.47 310.84 717.07 309.11 713.6C291.81 679.01 278.19 639 268.62 595.49C323.98 587.25 380.07 582.97 436.52 582.69V701.19ZM436.52 570.73C379.23 571.01 322.33 575.37 266.17 583.77C262.67 566.32 259.83 548.36 257.63 529.98H436.52V570.73ZM448.48 570.73V529.98H627.37C625.17 548.35 622.33 566.32 618.83 583.77C562.67 575.38 505.75 571.02 448.48 570.73ZM616.38 595.49C606.81 639 593.18 679 575.89 713.6C574.16 717.07 572.38 720.47 570.6 723.8C531.76 709.53 490.61 701.85 448.48 701.19V582.69C504.94 582.97 561.03 587.26 616.38 595.49ZM448.48 713.14C488.53 713.79 527.67 721 564.67 734.36C531.85 790.55 491.28 822.31 448.48 825.03V713.14ZM500.25 820.91C507.87 816.48 515.38 811.16 522.73 804.93C542.25 788.42 560.11 766.18 575.99 738.66C597.89 747.43 618.96 758.39 638.96 771.46C597.12 796.26 550.24 813.39 500.25 820.91ZM650.18 764.55C628.56 749.95 605.68 737.78 581.85 728.13C583.45 725.13 585.03 722.06 586.6 718.94C604.42 683.3 618.43 642.09 628.22 597.31C678.7 605.35 728.56 616.69 777.5 631.28C746.37 685.25 702.57 731.04 650.18 764.55ZM783.44 620.59C733.36 605.54 682.34 593.85 630.66 585.59C634.26 567.55 637.18 548.96 639.41 529.97H818.06C810.31 561.89 798.59 592.29 783.44 620.59ZM871.55 516.52H13.45V361.05H871.55V516.52Z" fill="black"/>
<path d="M230.28 483.97L241.26 468.48H314.3L325.39 484.14H359.89L359.43 483.51L292.99 393.47H263.63L263.51 393.63L196.73 484.14H230.17L230.29 483.97H230.28ZM277.83 416.76L298.79 446.5H256.76L277.83 416.76Z" fill="black"/>
<path d="M399.32 463.34H461.51C474.08 463.34 484.05 460.24 491.13 454.13C498.23 448 501.83 439.35 501.83 428.4C501.83 417.45 498.23 408.81 491.13 402.68C484.05 396.57 474.08 393.47 461.51 393.47H370.52V484.14H399.33V463.34H399.32ZM399.32 417.37H457.07C462.48 417.37 466.45 418.27 468.87 420.05C471.28 421.83 472.45 424.6 472.45 428.53C472.45 432.46 471.28 435.08 468.88 436.81C466.46 438.55 462.49 439.44 457.08 439.44H399.33V417.37H399.32Z" fill="black"/>
<path d="M700.11 474C713.23 481.92 732.57 485.93 757.59 485.93C782.61 485.93 801.94 481.91 815.06 474C828.24 466.04 834.92 454.28 834.92 439.05C834.92 423.82 828.26 411.77 815.12 403.72C802.04 395.72 782.68 391.66 757.59 391.66C732.5 391.66 713.23 395.72 700.11 403.72C686.93 411.76 680.25 423.65 680.25 439.04C680.25 454.43 686.93 466.03 700.11 473.99V474ZM721.04 421.24C728.7 417.48 741 415.57 757.59 415.57C774.18 415.57 786.47 417.48 794.14 421.24C801.81 425.02 805.54 430.84 805.54 439.05C805.54 447.26 801.81 452.69 794.14 456.42C786.48 460.14 774.19 462.03 757.59 462.03C740.99 462.03 728.69 460.14 721.04 456.42C713.38 452.69 709.65 447.01 709.65 439.05C709.65 431.09 713.38 425.01 721.05 421.24H721.04Z" fill="black"/>
<path d="M667.68 461.11H652.9V393.44H533.02V393.82L532.66 407.28C532.43 415.79 531.98 423.15 531.32 429.16C530.56 436.02 529.72 440.4 528.54 443.8C527.13 447.8 523.78 455.35 517.14 461.01L517.04 461.1H508.94V483.88H667.68V461.1V461.11ZM624.08 461.11H549.79L550.24 460.51C554.86 454.33 557.53 444.15 558.49 436.68L558.63 435.58C559.28 430.6 560.08 424.44 560.39 417.24L560.41 416.88H624.09V461.1L624.08 461.11Z" fill="black"/>
<path d="M78.89 447.3L140.12 484.14H190.57L189.35 483.41L110.78 436.12L188.71 393.48H141.41L141.32 393.53L78.89 428.57V393.48H50.08V484.14H78.89V447.3Z" fill="black"/>
</g>
<defs>
<clipPath id="clip0_42_551">
<rect width="885" height="868.95" fill="white"/>
</clipPath>
</defs>
</svg>
