<svg width="48" height="48" viewBox="0 0 48 48" fill="none" xmlns="http://www.w3.org/2000/svg">
<path fill-rule="evenodd" clip-rule="evenodd" d="M23.5 47C35.9264 47 46 36.9265 46 24.5C46 12.0735 35.9264 2 23.5 2C11.0736 2 1 12.0735 1 24.5C1 36.9265 11.0736 47 23.5 47ZM29.8947 17.375C29.8947 20.8958 27.0317 23.75 23.5 23.75C19.9683 23.75 17.1053 20.8958 17.1053 17.375C17.1053 13.8542 19.9683 11 23.5 11C27.0317 11 29.8947 13.8542 29.8947 17.375ZM10 31.5417V36.5H37V31.5417C37 29.3217 35.1311 27.6382 32.813 26.5702C30.4142 25.465 27.1451 24.8126 23.5 24.8126C19.8549 24.8126 16.5858 25.465 14.187 26.5702C11.8689 27.6382 10 29.3217 10 31.5417Z" fill="currentColor"/>
</svg>
