<svg width="48" height="48" viewBox="0 0 48 48" fill="none" xmlns="http://www.w3.org/2000/svg">
<path fill-rule="evenodd" clip-rule="evenodd" d="M8.00011 8L40 39.9999L40.1212 39.8787L38 42.0001L32.0606 36.0607C29.6811 37.2313 26.9829 38.0001 24 38.0001C11.5 38.0001 4 24.5001 4 24.5001C4 24.5001 6.73961 19.5688 11.6669 15.667L6 10.0001L8.00011 8ZM30.2067 34.2068L28.0931 32.0932C26.8433 32.7426 25.4399 33.0911 24 33.0911C21.6794 33.0911 19.4538 32.1859 17.8128 30.5748C16.1719 28.9637 15.25 26.7786 15.25 24.5001C15.25 23.0329 15.6323 21.6043 16.3427 20.3429L13.427 17.4271C12.5879 18.0788 11.8054 18.7746 11.0825 19.4855C9.52992 21.0149 8.13946 22.695 6.9325 24.5001C8.13946 26.3052 9.52742 27.9854 11.08 29.5148C14.3025 32.6787 18.7025 35.5456 24 35.5456C26.2358 35.5456 28.3117 35.0349 30.2067 34.2068ZM26.2318 30.2319L18.204 22.2041C17.907 22.9269 17.75 23.7056 17.75 24.5001C17.75 26.1276 18.4085 27.6884 19.5806 28.8392C20.7527 29.99 22.3424 30.6365 24 30.6365C24.7703 30.6365 25.5259 30.4969 26.2318 30.2319Z" fill="currentColor"/>
<path d="M16.7882 12.5455C18.9546 11.5994 21.3663 11.0001 24 11.0001C36.5 11.0001 44 24.5001 44 24.5001C44 24.5001 41.5131 28.9765 37.0167 32.774L35.2615 31.0188C35.8445 30.5325 36.3977 30.0275 36.92 29.5148C38.5075 27.9561 39.745 26.3852 40.5825 25.207C40.7642 24.9485 40.9267 24.7128 41.07 24.5001C39.863 22.695 38.4726 21.0149 36.92 19.4855C33.6975 16.3216 29.3 13.4547 24 13.4547C22.1068 13.4547 20.3284 13.8205 18.6777 14.435L16.7882 12.5455Z" fill="currentColor"/>
<path d="M20.7619 16.5192C21.7825 16.12 22.8802 15.9092 24 15.9092C26.3206 15.9092 28.5462 16.8144 30.1872 18.4255C31.8281 20.0366 32.75 22.2217 32.75 24.5001C32.75 25.6532 32.5139 26.7823 32.068 27.8253L30.0961 25.8534C30.1976 25.4127 30.25 24.9591 30.25 24.5001C30.25 22.8727 29.5915 21.3119 28.4194 20.1611C27.2473 19.0103 25.6576 18.3638 24 18.3638C23.5714 18.3638 23.1473 18.407 22.7338 18.491L20.7619 16.5192Z" fill="currentColor"/>
</svg>
