<svg width="48" height="48" viewBox="0 0 48 48" fill="none" xmlns="http://www.w3.org/2000/svg">
<path fill-rule="evenodd" clip-rule="evenodd" d="M17.8128 18.4255C16.1719 20.0366 15.25 22.2217 15.25 24.5001C15.25 26.7786 16.1719 28.9637 17.8128 30.5748C19.4538 32.1859 21.6794 33.0911 24 33.0911C26.3206 33.0911 28.5462 32.1859 30.1872 30.5748C31.8281 28.9637 32.75 26.7786 32.75 24.5001C32.75 22.2217 31.8281 20.0366 30.1872 18.4255C28.5462 16.8144 26.3206 15.9092 24 15.9092C21.6794 15.9092 19.4538 16.8144 17.8128 18.4255ZM19.5806 20.1611C20.7527 19.0103 22.3424 18.3638 24 18.3638C25.6576 18.3638 27.2473 19.0103 28.4194 20.1611C29.5915 21.3119 30.25 22.8727 30.25 24.5001C30.25 26.1276 29.5915 27.6884 28.4194 28.8392C27.2473 29.99 25.6576 30.6365 24 30.6365C22.3424 30.6365 20.7527 29.99 19.5806 28.8392C18.4085 27.6884 17.75 26.1276 17.75 24.5001C17.75 22.8727 18.4085 21.3119 19.5806 20.1611Z" fill="currentColor"/>
<path fill-rule="evenodd" clip-rule="evenodd" d="M24 11C36.5 11 44 24.5 44 24.5C44 24.5 36.5 38 24 38C11.5 38 4 24.5 4 24.5C4 24.5 11.5 11 24 11ZM11.0825 19.4854C9.52992 21.0147 8.13946 22.6949 6.9325 24.5C8.13946 26.3051 9.52742 27.9853 11.08 29.5146C14.3025 32.6785 18.7025 35.5455 24 35.5455C29.2975 35.5455 33.6975 32.6785 36.92 29.5146C38.5075 27.956 39.745 26.3851 40.5825 25.2069C40.7642 24.9484 40.9267 24.7127 41.07 24.5C39.863 22.6949 38.4726 21.0147 36.92 19.4854C33.6975 16.3215 29.3 13.4545 24 13.4545C18.7 13.4545 14.3 16.3215 11.0825 19.4854Z" fill="currentColor"/>
</svg>
