<svg width="48" height="48" viewBox="0 0 48 48" fill="none" xmlns="http://www.w3.org/2000/svg">
<path fill-rule="evenodd" clip-rule="evenodd" d="M24 24C28.9706 24 33 19.9706 33 15C33 10.0294 28.9706 6 24 6C19.0294 6 15 10.0294 15 15C15 19.9706 19.0294 24 24 24ZM24 21C27.3137 21 30 18.3137 30 15C30 11.6863 27.3137 9 24 9C20.6863 9 18 11.6863 18 15C18 18.3137 20.6863 21 24 21Z" fill="currentColor"/>
<path fill-rule="evenodd" clip-rule="evenodd" d="M43 42H5V35C5 31.8659 7.63029 29.4894 10.8928 27.9815C14.2689 26.4212 18.8699 25.5 24 25.5C29.1301 25.5 33.7311 26.4212 37.1072 27.9815C40.3697 29.4894 43 31.8659 43 35V42ZM12.1514 30.7048C9.14915 32.0923 8 33.7158 8 35V39H40V35C40 33.7158 38.8509 32.0923 35.8486 30.7048C32.96 29.3697 28.811 28.5 24 28.5C19.189 28.5 15.04 29.3697 12.1514 30.7048Z" fill="currentColor"/>
</svg>
