<svg width="48" height="48" viewBox="0 0 48 48" fill="none" xmlns="http://www.w3.org/2000/svg">
<path d="M21.9551 36H25.4519V32.6202H21.9551V36ZM23.9578 12C21.9217 12 20.2443 12.5258 18.9268 13.5761C17.6092 14.627 16.9685 16.7316 17.0012 18.4754L17.0526 18.5726H20.2422C20.2422 17.5323 20.6043 16.0374 21.3283 15.5009C22.0517 14.9651 22.9287 14.6969 23.9586 14.6969C25.1454 14.6969 26.0579 15.0057 26.6979 15.6234C27.3372 16.241 27.6561 17.1242 27.6561 18.2717C27.6561 19.2361 27.4199 20.0594 26.9452 20.7416C26.4692 21.4238 25.6715 22.399 24.5527 23.6669C23.3985 24.6639 22.6855 25.4653 22.4145 26.0716C22.1428 26.6786 22.0017 27.7675 21.9913 29.3376H25.3338C25.3338 28.3525 25.399 27.6264 25.529 27.1605C25.6582 26.6952 26.0287 26.1695 26.6395 25.5844C27.9522 24.3717 29.0063 23.1857 29.8048 22.0256C30.6011 20.8668 31 19.5882 31 18.1905C31 16.2404 30.3843 14.7209 29.1508 13.6327C27.9167 12.5438 26.1857 12 23.9578 12Z" fill="currentColor"/>
</svg>
