<svg width="48" height="48" viewBox="0 0 48 48" fill="none" xmlns="http://www.w3.org/2000/svg">
<path d="M19.0662 4L20.7988 5.9191C22.6982 8.02216 25.7809 8.01703 27.6744 5.9191L29.3 4.11893C31.2698 4.6496 33.149 5.4724 34.8751 6.55995L34.7578 8.85294C34.6133 11.6833 36.7976 13.859 39.6193 13.7153L41.6942 13.6092C42.7635 15.4392 43.5411 17.4246 43.9991 19.494L42.5532 20.7988C40.451 22.6982 40.457 25.7809 42.5532 27.6744L43.8888 28.879C43.3683 30.9904 42.5139 33.005 41.3579 34.8468L39.6193 34.7578C36.7899 34.6132 34.6141 36.7976 34.7578 39.6193L34.8468 41.3579C33.005 42.5139 30.9904 43.3683 28.879 43.8888L27.6744 42.554C25.7749 40.451 22.6922 40.4561 20.7988 42.554L19.494 44C17.4245 43.5417 15.4391 42.7638 13.6092 41.6942L13.7153 39.6193C13.8599 36.7899 11.6756 34.6141 8.8538 34.7578L6.5608 34.8751C5.47288 33.1488 4.64979 31.2693 4.11893 29.2991L5.9191 27.6735C8.02216 25.7758 8.01703 22.6922 5.9191 20.7988L4 19.0662C4.47012 17.1392 5.21866 15.2911 6.22198 13.5801L8.8538 13.7144C11.6833 13.859 13.859 11.6747 13.7153 8.85294L13.5801 6.22198C15.2906 5.21881 17.1381 4.47028 19.0645 4M17.7263 7.22303C17.4204 7.3367 17.1177 7.45881 16.8186 7.58923L16.8408 8.02815C17.0992 13.083 13.0873 17.0992 8.02815 16.8408L7.58923 16.8185C7.45918 17.118 7.33683 17.42 7.22303 17.7255L7.54217 18.0147C11.2991 21.4063 11.3025 27.0823 7.54217 30.4773L7.39501 30.6108C7.53789 30.965 7.6919 31.3149 7.85703 31.6589L8.02815 31.6503C13.0334 31.3945 17.0213 35.3268 16.8476 40.3175C17.2694 40.5006 17.6998 40.6675 18.1353 40.8172C21.4482 37.2904 26.8248 37.2339 30.2026 40.658C30.6903 40.4749 31.1695 40.2713 31.6392 40.0463C31.6152 35.3277 35.3243 31.6152 40.0463 31.6392C40.2713 31.1695 40.4749 30.6895 40.658 30.2018C37.2365 26.8273 37.287 21.4508 40.8172 18.1353C40.6675 17.699 40.5006 17.2694 40.3167 16.8476C35.4107 17.0188 31.5203 13.1634 31.6409 8.266L31.6589 7.85703C31.3146 7.69177 30.965 7.53768 30.6108 7.39501L30.4773 7.54217C27.0857 11.2991 21.4088 11.3025 18.0147 7.54217L17.7263 7.22303ZM23.9499 16.2496C24.9612 16.2496 25.9625 16.4488 26.8968 16.8357C27.831 17.2227 28.6799 17.7899 29.3949 18.505C30.11 19.22 30.6772 20.0689 31.0642 21.0031C31.4511 21.9374 31.6503 22.9387 31.6503 23.9499C31.6503 24.9612 31.4511 25.9625 31.0642 26.8968C30.6772 27.831 30.11 28.6799 29.3949 29.3949C28.6799 30.11 27.831 30.6772 26.8968 31.0642C25.9625 31.4511 24.9612 31.6503 23.9499 31.6503C21.9077 31.6503 19.9491 30.839 18.505 29.3949C17.0609 27.9508 16.2496 25.9922 16.2496 23.9499C16.2496 21.9077 17.0609 19.9491 18.505 18.505C19.9491 17.0609 21.9077 16.2496 23.9499 16.2496ZM23.9499 18.8164C23.2758 18.8164 22.6082 18.9492 21.9854 19.2071C21.3626 19.4651 20.7967 19.8433 20.32 20.32C19.8433 20.7967 19.4651 21.3626 19.2071 21.9854C18.9492 22.6082 18.8164 23.2758 18.8164 23.9499C18.8164 24.6241 18.9492 25.2916 19.2071 25.9145C19.4651 26.5373 19.8433 27.1032 20.32 27.5799C20.7967 28.0566 21.3626 28.4348 21.9854 28.6928C22.6082 28.9507 23.2758 29.0835 23.9499 29.0835C25.3115 29.0835 26.6172 28.5427 27.5799 27.5799C28.5427 26.6172 29.0835 25.3115 29.0835 23.9499C29.0835 22.5884 28.5427 21.2827 27.5799 20.32C26.6172 19.3572 25.3115 18.8164 23.9499 18.8164Z" fill="currentColor"/>
</svg>
