<svg viewBox="0 0 25 26" fill="none" xmlns="http://www.w3.org/2000/svg">
<path d="M3.78775 4.63835L2.51318 5.44426L4.92488 8.71828C5.5406 8.46643 5.72435 8.40469 6.39689 8.2448L3.78775 4.63835Z" fill="currentColor"/>
<path d="M16.6219 4.94056L14.6071 7.96273H16.3701L17.8811 5.69611L16.6219 4.94056Z" fill="currentColor"/>
<path d="M9.57017 2.92578V7.96273H11.0813V2.92578H9.57017Z" fill="currentColor"/>
<path d="M11.0813 9.97751V11.4886H20.6515V11.9923L13.5997 13.7552V16.5256C13.5997 19.3074 11.3445 21.5625 8.56269 21.5625C5.78085 21.5625 3.52573 19.3074 3.52573 16.5256C3.52573 13.7437 5.78085 11.4886 8.56269 11.4886H9.06638V9.97751H8.56269C4.9463 9.97751 2.01465 12.9092 2.01465 16.5256C2.01465 20.1419 4.9463 23.0736 8.56269 23.0736C12.1791 23.0736 15.1107 20.1419 15.1107 16.5256L15.1108 14.9238L22.1626 12.9997V9.97751H11.0813Z" fill="currentColor"/>
</svg>
