<svg width="343" height="76" viewBox="0 0 358 76" fill="none" xmlns="http://www.w3.org/2000/svg">
    <defs>
        <mask id="a" x="0" y="0" width="100%" height="100%">
            <rect width="100%" height="100%" fill="#fff"/>
            <path d="M1 0a1 1 0 1 1-2 0 1 1 0 0 1 2 0Zm11 38c0 6.627-5.373 12-12 12s-12-5.373-12-12 5.373-12 12-12 12 5.373 12 12ZM0 5a1 1 0 1 0 0-2 1 1 0 0 0 0 2Zm1 3a1 1 0 1 1-2 0 1 1 0 0 1 2 0Zm-1 5a1 1 0 1 0 0-2 1 1 0 0 0 0 2Zm1 3a1 1 0 1 1-2 0 1 1 0 0 1 2 0Zm-1 5a1 1 0 1 0 0-2 1 1 0 0 0 0 2Zm1 3a1 1 0 1 1-2 0 1 1 0 0 1 2 0ZM0 53a1 1 0 1 0 0-2 1 1 0 0 0 0 2Zm1 3a1 1 0 1 1-2 0 1 1 0 0 1 2 0Zm-1 5a1 1 0 1 0 0-2 1 1 0 0 0 0 2Zm1 3a1 1 0 1 1-2 0 1 1 0 0 1 2 0Zm-1 5a1 1 0 1 0 0-2 1 1 0 0 0 0 2Zm1 3a1 1 0 1 1-2 0 1 1 0 0 1 2 0Zm-1 5a1 1 0 1 0 0-2 1 1 0 0 0 0 2Z" fill="#000"/>
            <path fill-rule="evenodd" clip-rule="evenodd" d="M35 0a1 1 0 1 1-2 0 1 1 0 0 1 2 0Zm-1 25a1 1 0 1 0 0-2 1 1 0 0 0 0 2Zm0 28a1 1 0 1 0 0-2 1 1 0 0 0 0 2Zm1 3a1 1 0 1 1-2 0 1 1 0 0 1 2 0Zm-1-27a1 1 0 1 0 0-2 1 1 0 0 0 0 2Zm0 32a1 1 0 1 0 0-2 1 1 0 0 0 0 2Zm1-29a1 1 0 1 1-2 0 1 1 0 0 1 2 0ZM34 5a1 1 0 1 0 0-2 1 1 0 0 0 0 2Zm1 59a1 1 0 1 1-2 0 1 1 0 0 1 2 0Zm-1-27a1 1 0 1 0 0-2 1 1 0 0 0 0 2Zm1-29a1 1 0 1 1-2 0 1 1 0 0 1 2 0Zm-1 61a1 1 0 1 0 0-2 1 1 0 0 0 0 2Zm1-29a1 1 0 1 1-2 0 1 1 0 0 1 2 0Zm-1-27a1 1 0 1 0 0-2 1 1 0 0 0 0 2Zm1 59a1 1 0 1 1-2 0 1 1 0 0 1 2 0Zm-1-27a1 1 0 1 0 0-2 1 1 0 0 0 0 2Zm1-29a1 1 0 1 1-2 0 1 1 0 0 1 2 0Zm-1 61a1 1 0 1 0 0-2 1 1 0 0 0 0 2Zm1-29a1 1 0 1 1-2 0 1 1 0 0 1 2 0Zm-1-27a1 1 0 1 0 0-2 1 1 0 0 0 0 2Z" fill="#000"/>
        </mask>
    </defs>
    <rect width="100%" height="100%" fill="currentColor" mask="url(#a)"/>
    <g clip-path="url(#b)" fill="#fff">
        <path d="M19 1h10v.35H19V1Zm0 5.4h10v.35H19V6.4Zm0 2.4h10v.35H19V8.8Zm0 .6h10v.64H19V9.4Zm0-2.2h10v1.3H19V7.2Zm0 3.1h10v1.3H19v-1.3Zm0-8.6h10v.35H19V1.7Zm0 .8h10v.35H19V2.5Zm0 .92h10v.65H19v-.65Zm0 .98h10v1.3H19V4.4Zm0 7.9h10v.35H19v-.35Zm0 5.4h10v.35H19v-.35Zm0 2.4h10v.35H19v-.35Zm0 .6h10v.64H19v-.64Zm0-2.2h10v1.3H19v-1.3Zm0 3.1h10v1.3H19v-1.3Zm0-8.6h10v.35H19V13Zm0 .8h10v.35H19v-.35Zm0 .92h10v.65H19v-.65Zm0 .98h10V17H19v-1.3Zm0 7.6h10v.35H19v-.35Zm0 5.4h10v.35H19v-.35Zm0 2.4h10v.35H19v-.35Zm0 .6h10v.64H19v-.64Zm0-2.2h10v1.3H19v-1.3Zm0 3.1h10v1.3H19v-1.3Zm0-8.6h10v.35H19V24Zm0 .8h10v.35H19v-.35Zm0 .92h10v.65H19v-.65Zm0 .98h10V28H19v-1.3Zm0 7.7h10v.35H19v-.35Zm0 5.4h10v.35H19v-.35Zm0 2.4h10v.35H19v-.35Zm0 .6h10v.64H19v-.64Zm0-2.2h10v1.3H19v-1.3Zm0 3.1h10V45H19v-1.3Zm0-8.6h10v.35H19v-.35Zm0 .8h10v.35H19v-.35Zm0 .92h10v.65H19v-.65Zm0 .98h10v1.3H19v-1.3Zm0 7.6h10v.35H19v-.35Zm0 5.4h10v.35H19v-.35Zm0 2.4h10v.35H19v-.35Zm0 .6h10v.64H19v-.64Zm0-2.2h10v1.3H19v-1.3Zm0 3.1h10V56H19v-1.3Zm0-8.6h10v.35H19v-.35Zm0 .8h10v.35H19v-.35Zm0 .92h10v.65H19v-.65Zm0 .98h10v1.3H19v-1.3Zm0 7.6h10v.35H19v-.35Zm0 5.4h10v.35H19v-.35Zm0 2.4h10v.35H19v-.35Zm0 .6h10v.64H19v-.64Zm0-2.2h10v1.3H19v-1.3Zm0 3.1h10V67H19v-1.3Zm0-8.6h10v.35H19v-.35Zm0 .8h10v.35H19v-.35Zm0 .92h10v.65H19v-.65Zm0 .98h10v1.3H19v-1.3Z"/>
    </g>
    <defs>
        <clipPath id="b">
            <path fill="#fff" d="M19 10h10v56H19z"/>
        </clipPath>
    </defs>
</svg>
