<svg viewBox="0 0 24 24" fill="none" xmlns="http://www.w3.org/2000/svg">
<mask id="mask0_1274_3991" style="mask-type:luminance" maskUnits="userSpaceOnUse" x="3" y="3" width="18" height="18">
<path d="M9.33333 4H4.88889C4.65314 4 4.42705 4.09365 4.26035 4.26035C4.09365 4.42705 4 4.65314 4 4.88889V9.33333C4 9.56908 4.09365 9.79517 4.26035 9.96187C4.42705 10.1286 4.65314 10.2222 4.88889 10.2222H9.33333C9.56908 10.2222 9.79517 10.1286 9.96187 9.96187C10.1286 9.79517 10.2222 9.56908 10.2222 9.33333V4.88889C10.2222 4.65314 10.1286 4.42705 9.96187 4.26035C9.79517 4.09365 9.56908 4 9.33333 4ZM9.33333 13.7778H4.88889C4.65314 13.7778 4.42705 13.8714 4.26035 14.0381C4.09365 14.2048 4 14.4309 4 14.6667V19.1111C4 19.3469 4.09365 19.573 4.26035 19.7397C4.42705 19.9064 4.65314 20 4.88889 20H9.33333C9.56908 20 9.79517 19.9064 9.96187 19.7397C10.1286 19.573 10.2222 19.3469 10.2222 19.1111V14.6667C10.2222 14.4309 10.1286 14.2048 9.96187 14.0381C9.79517 13.8714 9.56908 13.7778 9.33333 13.7778ZM19.1111 4H14.6667C14.4309 4 14.2048 4.09365 14.0381 4.26035C13.8714 4.42705 13.7778 4.65314 13.7778 4.88889V9.33333C13.7778 9.56908 13.8714 9.79517 14.0381 9.96187C14.2048 10.1286 14.4309 10.2222 14.6667 10.2222H19.1111C19.3469 10.2222 19.573 10.1286 19.7397 9.96187C19.9064 9.79517 20 9.56908 20 9.33333V4.88889C20 4.65314 19.9064 4.42705 19.7397 4.26035C19.573 4.09365 19.3469 4 19.1111 4ZM19.1111 13.7778H14.6667C14.4309 13.7778 14.2048 13.8714 14.0381 14.0381C13.8714 14.2048 13.7778 14.4309 13.7778 14.6667V19.1111C13.7778 19.3469 13.8714 19.573 14.0381 19.7397C14.2048 19.9064 14.4309 20 14.6667 20H19.1111C19.3469 20 19.573 19.9064 19.7397 19.7397C19.9064 19.573 20 19.3469 20 19.1111V14.6667C20 14.4309 19.9064 14.2048 19.7397 14.0381C19.573 13.8714 19.3469 13.7778 19.1111 13.7778Z" fill="white" stroke="white" stroke-width="1.5" stroke-linejoin="round"/>
</mask>
<g mask="url(#mask0_1274_3991)">
<path d="M1.33276 1.33301H22.6661V22.6663H1.33276V1.33301Z" fill="currentColor"/>
</g>
</svg>
