<svg width="48" height="48" viewBox="0 0 48 48" fill="none" xmlns="http://www.w3.org/2000/svg">
<path d="M34.3915 3.00783L36.8156 7.507L42 8.12788L38.1957 11.5067L38.9566 16.5053L34.3915 13.6933L29.8264 16.5053L30.5872 11.5067L26.783 8.12788L32.1089 7.507L34.3915 3.00783Z" fill="currentColor"/>
<path d="M33.9605 19.8782L31.0122 19.1313C30.4837 21.1384 29.3635 22.946 27.793 24.3259C26.2226 25.7058 24.2724 26.596 22.1889 26.884C20.1053 27.172 17.9819 26.845 16.0868 25.9442C14.1918 25.0434 12.6102 23.6093 11.5418 21.823C10.4734 20.0367 9.96611 17.9784 10.0841 15.9081C10.2021 13.8378 10.94 11.8484 12.2047 10.1913C13.4694 8.53414 15.204 7.28359 17.1895 6.59762C19.175 5.91164 21.3222 5.82103 23.3599 6.33721L24.1192 3.43301C21.1494 2.67277 18.0065 2.91861 15.1955 4.131C12.3845 5.3434 10.0687 7.45196 8.62026 10.1178C7.17178 12.7837 6.67473 15.8521 7.20898 18.83C7.74322 21.8078 9.27775 24.5222 11.566 26.5369V45L20.6962 39.0011L29.8264 45V26.5651C31.8473 24.7899 33.2864 22.4621 33.9605 19.8782ZM26.783 39.3951L20.6962 35.3961L14.6094 39.3951V28.5781C16.4978 29.5131 18.5817 30.0009 20.6951 30.0025C22.8085 30.0041 24.8931 29.5195 26.783 28.5874V39.3951Z" fill="currentColor"/>
</svg>
