<svg width="48" height="48" viewBox="0 0 48 48" fill="none" xmlns="http://www.w3.org/2000/svg">
<path d="M22.9558 11.5022L24.0087 12.5231L25.0531 11.4935L26.333 10.2317C28.2551 8.44695 30.8104 7.46531 33.4595 7.50094C36.1154 7.53665 38.6483 8.59189 40.5214 10.4361C42.3938 12.2796 43.4595 14.7657 43.4989 17.365C43.5381 19.9575 42.5535 22.4671 40.7473 24.3627L23.9994 40.893L7.25246 24.3834C5.44638 22.4878 4.46188 19.9783 4.50113 17.386C4.54049 14.7866 5.60617 12.3005 7.47858 10.457C9.35167 8.61283 11.8846 7.55758 14.5405 7.52187C17.1916 7.48622 19.7488 8.46938 21.6714 10.2567L22.9558 11.5022Z" stroke="currentColor" stroke-width="3"/>
</svg>
