<svg width="48" height="48" viewBox="0 0 48 48" fill="none" xmlns="http://www.w3.org/2000/svg">
<path fill-rule="evenodd" clip-rule="evenodd" d="M22.7568 6.04226C13.3956 6.68086 6 14.4768 6 24C6 33.9411 14.0589 42 24 42C33.9411 42 42 33.9411 42 24C42 14.0589 33.9411 6 24 6C23.602 6 23.2069 6.01292 22.8153 6.03836L22.7841 6.01102C22.775 6.02143 22.7659 6.03185 22.7568 6.04226ZM38.3198 29.4C38.9533 27.7208 39.3 25.9009 39.3 24C39.3 22.4339 39.0647 20.9228 38.6275 19.5H31.8918C32.4939 22.4721 32.5748 25.8162 31.6905 29.4H38.3198ZM28.8981 29.4C29.9272 25.7426 29.7965 22.3938 29.1302 19.5H18.5706C17.7939 23.2044 18.1769 26.5585 19.0273 29.4H28.8981ZM16.2229 29.4H9.6802C9.04665 27.7208 8.7 25.9009 8.7 24C8.7 22.4339 8.9353 20.9228 9.37248 19.5H15.819C15.1542 23.1188 15.4494 26.4667 16.2229 29.4ZM19.3308 16.8H28.3218C27.4071 14.3215 26.1713 12.2776 25.1178 10.8087C24.59 10.0728 24.1115 9.48614 23.7482 9.0668C21.6161 11.7434 20.2037 14.3352 19.3308 16.8ZM20.3198 9.14549C18.4834 11.7718 17.2511 14.337 16.4857 16.8H10.4966C12.5132 13.0257 16.066 10.1959 20.3198 9.14549ZM17.1025 32.1C18.1024 34.6735 19.3918 36.7862 20.4882 38.3149C20.6639 38.56 20.8351 38.7905 20.9996 39.0059C16.7967 38.1703 13.214 35.6129 11.0176 32.1H17.1025ZM24.0518 38.4832C23.6885 38.0639 23.21 37.4772 22.6822 36.7413C21.8266 35.5484 20.8508 33.9762 20.0244 32.1H27.9414C27.0617 34.1554 25.7982 36.2909 24.0518 38.4832ZM37.5034 16.8H31.1795C30.141 13.6107 28.5944 11.0233 27.3119 9.23508C27.2612 9.16449 27.211 9.09511 27.1612 9.02695C31.6444 9.96874 35.4053 12.8732 37.5034 16.8ZM36.9824 32.1C34.7961 35.5968 31.2362 38.1467 27.0583 38.9943C28.7803 36.6401 30.0119 34.3323 30.851 32.1H36.9824Z" fill="currentColor"/>
</svg>
