<svg viewBox="0 0 24 24" fill="none" xmlns="http://www.w3.org/2000/svg">
<path d="M3.11111 14.2857H5.33333C5.94444 14.2857 6.44444 13.7714 6.44444 13.1429V10.8571C6.44444 10.2286 5.94444 9.71429 5.33333 9.71429H3.11111C2.5 9.71429 2 10.2286 2 10.8571V13.1429C2 13.7714 2.5 14.2857 3.11111 14.2857ZM3.11111 20H5.33333C5.94444 20 6.44444 19.4857 6.44444 18.8571V16.5714C6.44444 15.9429 5.94444 15.4286 5.33333 15.4286H3.11111C2.5 15.4286 2 15.9429 2 16.5714V18.8571C2 19.4857 2.5 20 3.11111 20ZM3.11111 8.57143H5.33333C5.94444 8.57143 6.44444 8.05714 6.44444 7.42857V5.14286C6.44444 4.51429 5.94444 4 5.33333 4H3.11111C2.5 4 2 4.51429 2 5.14286V7.42857C2 8.05714 2.5 8.57143 3.11111 8.57143ZM8.66667 14.2857H20.8889C21.5 14.2857 22 13.7714 22 13.1429V10.8571C22 10.2286 21.5 9.71429 20.8889 9.71429H8.66667C8.05556 9.71429 7.55556 10.2286 7.55556 10.8571V13.1429C7.55556 13.7714 8.05556 14.2857 8.66667 14.2857ZM8.66667 20H20.8889C21.5 20 22 19.4857 22 18.8571V16.5714C22 15.9429 21.5 15.4286 20.8889 15.4286H8.66667C8.05556 15.4286 7.55556 15.9429 7.55556 16.5714V18.8571C7.55556 19.4857 8.05556 20 8.66667 20ZM7.55556 5.14286V7.42857C7.55556 8.05714 8.05556 8.57143 8.66667 8.57143H20.8889C21.5 8.57143 22 8.05714 22 7.42857V5.14286C22 4.51429 21.5 4 20.8889 4H8.66667C8.05556 4 7.55556 4.51429 7.55556 5.14286Z" fill="currentColor"/>
</svg>
