<svg width="48" height="48" viewBox="0 0 48 48" fill="none" xmlns="http://www.w3.org/2000/svg">
<path d="M34.1 23C34.1 29 29.02 33.2 23.5 33.2C17.98 33.2 12.9 29 12.9 23H10C10 29.82 15.44 35.02 22 36V43H25V36C31.56 35.02 37 29.82 37 23M20.5 10.8C20.5 9.48 22.18 8 23.5 8C24.82 8 26.5 9.48 26.5 10.8V23.2C26.5 24.52 24.82 26 23.5 26C22.18 26 20.5 24.52 20.5 23.2M23.5 29C25.0913 29 26.6174 28.3679 27.7426 27.2426C28.8679 26.1174 29.5 24.5913 29.5 23V11C29.5 9.4087 28.8679 7.88258 27.7426 6.75736C26.6174 5.63214 25.0913 5 23.5 5C21.9087 5 20.3826 5.63214 19.2574 6.75736C18.1321 7.88258 17.5 9.4087 17.5 11V23C17.5 24.5913 18.1321 26.1174 19.2574 27.2426C20.3826 28.3679 21.9087 29 23.5 29Z" fill="currentColor"/>
</svg>
