<svg width="48" height="48" viewBox="0 0 48 48" fill="none" xmlns="http://www.w3.org/2000/svg">
<path fill-rule="evenodd" clip-rule="evenodd" d="M35.2364 28.1837V17.16C35.2364 13.8078 34.2832 10.7652 32.3375 8.5364C30.3683 6.28064 27.5031 5 24 5C20.4969 5 17.6317 6.28064 15.6625 8.5364C13.7168 10.7652 12.7636 13.8078 12.7636 17.16L12.7636 28.1837L6 34.8933H42L35.2364 28.1837ZM17.9791 10.5265C16.6241 12.0787 15.8281 14.356 15.8281 17.16V29.4429L13.3983 31.8533H34.6017L32.1719 29.4429V17.16C32.1719 14.356 31.3759 12.0787 30.0209 10.5265C28.6895 9.00129 26.7026 8.04 24 8.04C21.2974 8.04 19.3105 9.00129 17.9791 10.5265Z" fill="currentColor"/>
<path d="M24 39.96C22.0255 39.96 20.4248 38.3721 20.4248 36.4133H17.3603C17.3603 40.051 20.333 43 24 43C27.667 43 30.6397 40.051 30.6397 36.4133H27.5752C27.5752 38.3721 25.9745 39.96 24 39.96Z" fill="currentColor"/>
</svg>
