<svg width="48" height="48" viewBox="0 0 48 48" fill="none" xmlns="http://www.w3.org/2000/svg">
<path d="M44 41.9078L32.8264 30.7341C35.5113 27.5107 36.8502 23.3763 36.5645 19.1909C36.2787 15.0055 34.3904 11.0914 31.2923 8.2628C28.1942 5.4342 24.1249 3.90891 19.9308 4.00421C15.7368 4.09952 11.7409 5.80809 8.7745 8.7745C5.80809 11.7409 4.09952 15.7368 4.00421 19.9308C3.90891 24.1249 5.4342 28.1942 8.2628 31.2923C11.0914 34.3904 15.0055 36.2787 19.1909 36.5645C23.3763 36.8502 27.5107 35.5113 30.7341 32.8264L41.9078 44L44 41.9078ZM7.01145 20.3273C7.01145 17.6937 7.79241 15.1192 9.25558 12.9294C10.7187 10.7396 12.7984 9.03291 15.2316 8.02506C17.6647 7.01721 20.3421 6.75351 22.9251 7.26731C25.5082 7.78111 27.8808 9.04932 29.7431 10.9116C31.6053 12.7738 32.8735 15.1465 33.3873 17.7295C33.9011 20.3126 33.6374 22.9899 32.6296 25.4231C31.6217 27.8563 29.915 29.9359 27.7252 31.3991C25.5354 32.8622 22.961 33.6432 20.3273 33.6432C16.7969 33.6393 13.4123 32.2351 10.9159 29.7388C8.41954 27.2424 7.01537 23.8577 7.01145 20.3273Z" fill="currentColor"/>
</svg>
