<svg width="48" height="48" viewBox="0 0 48 48" fill="none" xmlns="http://www.w3.org/2000/svg">
<path d="M24 8C15.1776 8 8 15.1776 8 24V30.6288C8 32.2672 9.4352 33.6 11.2 33.6H12.8C13.2243 33.6 13.6313 33.4314 13.9314 33.1314C14.2314 32.8313 14.4 32.4243 14.4 32V23.7712C14.4 23.3469 14.2314 22.9399 13.9314 22.6398C13.6313 22.3398 13.2243 22.1712 12.8 22.1712H11.3472C12.2368 15.9792 17.5648 11.2 24 11.2C30.4352 11.2 35.7632 15.9792 36.6528 22.1712H35.2C34.7757 22.1712 34.3687 22.3398 34.0686 22.6398C33.7686 22.9399 33.6 23.3469 33.6 23.7712V33.6C33.6 35.3648 32.1648 36.8 30.4 36.8H27.2V35.2H20.8V40H30.4C33.9296 40 36.8 37.1296 36.8 33.6C38.5648 33.6 40 32.2672 40 30.6288V24C40 15.1776 32.8224 8 24 8Z" fill="currentColor"/>
</svg>
